<?xml version="1.0" encoding="UTF-8" standalone="no"?><svg xmlns="http://www.w3.org/2000/svg" xmlns:xlink="http://www.w3.org/1999/xlink" contentScriptType="application/ecmascript" contentStyleType="text/css" height="403px" preserveAspectRatio="none" style="width:350px;height:403px;" version="1.1" viewBox="0 0 350 403" width="350px" zoomAndPan="magnify"><defs><filter height="300%" id="fjhr3m6e76ww8" width="300%" x="-1" y="-1"><feGaussianBlur result="blurOut" stdDeviation="2.0"/><feColorMatrix in="blurOut" result="blurOut2" type="matrix" values="0 0 0 0 0 0 0 0 0 0 0 0 0 0 0 0 0 0 .4 0"/><feOffset dx="4.0" dy="4.0" in="blurOut2" result="blurOut3"/><feBlend in="SourceGraphic" in2="blurOut3" mode="normal"/></filter></defs><g><text fill="#000000" font-family="sans-serif" font-size="18" lengthAdjust="spacing" textLength="115" x="111.3339" y="16.708">Nodes Graph</text><!--MD5=[07074073229a58b98d86dbf75a12e332]
cluster Internet--><path d="M28.8921,53.0428 C34.7845,41.5474 42.606,40.3675 52.0497,48.9461 C58.0641,38.7526 69.0188,37.512 75.8495,48.007 C80.9123,37.914 91.7112,35.3825 98.1463,46.5691 C106.3653,35.2133 114.6936,34.9446 124.1978,45.006 C129.262,31.7015 138.9847,31.6151 148.1786,40.5536 C155.6317,26.9797 163.7962,26.9531 172.4327,39.4527 C180.4392,29.5256 188.1502,27.9992 195.8543,39.7791 C203.8708,31.0399 214.2426,32.4856 219.3434,43.2845 C226.4844,32.4825 236.2213,33.1693 241.0915,45.4261 C250.1462,34.1435 258.0947,38.564 263.7124,49.005 C270.7873,37.7619 282.8731,38.774 287.9149,51.0932 C299.9937,40.0548 310.1064,42.5963 317.7151,56.4456 C318.5049,55.3979 319.5689,55.2654 320.2535,56.5596 C331.1134,64.6569 331.1125,72.941 319.1357,79.9468 C329.8524,84.9391 333.3863,96.8079 321.7408,104.202 C334.2076,109.9607 335.8116,119.0634 323.863,127.0864 C335.2299,131.4011 333.7142,140.959 325.6952,147.0526 C339.1566,153.7739 338.9322,162.3785 327.4215,170.907 C336.3488,176.3792 338.9008,183.8245 328.9599,190.7589 C343.1113,197.6417 343.6679,208.4498 330.6332,217.0621 C339.1895,225.3628 336.533,231.6298 326.3066,235.5302 C339.8461,242.9079 336.4526,254.1036 325.9976,261.1924 C336.3642,267.5505 335.7208,274.5631 326.2239,281.1465 C337.9132,290.8638 336.9124,299.876 323.1132,306.4613 C333.4588,313.7519 333.3728,320.9599 322.5355,327.6737 C332.6017,335.4141 334.7956,343.9212 321.8244,350.958 C331.859,365.58 325.1992,372.5106 310.7151,376.4456 C312.5115,375.4427 314.2645,376.3846 314.0966,378.5453 C308.5621,392.1001 297.0821,394.435 288.73,381.2146 C280.6749,390.333 270.3352,391.7656 265.1771,378.2058 C260.653,390.8647 251.0514,391.4856 243.2375,381.3758 C235.6749,391.8058 228.0869,393.1191 219.7646,382.2115 C212.8701,393.6236 199.7131,395.8471 192.5312,382.5279 C187.59,393.146 176.3072,396.9172 169.0033,384.994 C162.4672,393.8511 152.1767,395.2869 146.3546,384.1838 C137.8683,393.7341 128.2042,392.4461 123.6237,380.1245 C115.5345,392.064 107.7681,394.5361 97.8147,382.0981 C90.0455,391.632 80.5256,392.3279 75.1889,379.6232 C67.8236,388.0104 60.4437,388.2248 53.7186,378.8493 C39.5898,391.2715 24.4929,390.8359 19.7151,369.4456 C21.3323,368.6539 22.2439,369.0039 22.5387,370.8573 C10.0911,363.3505 11.9184,355.4359 21.9891,347.4014 C12.2312,341.2806 11.991,331.5252 23.4104,326.8705 C12.3223,322.5739 8.6163,312.6902 19.5448,304.5761 C10.3092,296.4334 8.552,287.1279 21.3475,280.6446 C11.6406,276.1518 11.0349,268.6316 18.7737,261.761 C8.0578,252.8786 7.9077,244.7884 19.0653,236.1552 C9.6723,229.7364 9.2488,221.799 19.8401,216.1544 C6,210.0912 8.1756,198.3046 18.9737,191.3797 C9.5843,183.3872 8.3201,176.7358 20.3103,170.0852 C9.7534,164.2435 10.0929,156.0401 19.5269,149.4399 C6.4858,139.455 7.8653,130.3051 22.5695,123.5853 C12.7241,116.8832 11.8591,107.4757 23.3056,101.4827 C12.837,95.8559 13.5215,89.6394 21.8138,82.5354 C10.1115,69.6014 8.3114,57.9203 26.7151,49.4456 C29.2313,49.5806 30.0033,50.7124 28.8921,53.0428 " fill="#FFFFFF" filter="url(#fjhr3m6e76ww8)" style="stroke:#000000;stroke-width:1.5;"/><text fill="#000000" font-family="sans-serif" font-size="14" font-weight="bold" lengthAdjust="spacing" textLength="63" x="137.2151" y="67.4407">Internet</text><!--MD5=[358540b9fa39c35543db1c25399945ad]
entity VCServer--><path d="M27.7151,192.4456 C27.7151,182.4456 76.7151,182.4456 76.7151,182.4456 C76.7151,182.4456 125.7151,182.4456 125.7151,192.4456 L125.7151,217.7425 C125.7151,227.7425 76.7151,227.7425 76.7151,227.7425 C76.7151,227.7425 27.7151,227.7425 27.7151,217.7425 L27.7151,192.4456 " fill="#FEFECE" filter="url(#fjhr3m6e76ww8)" style="stroke:#000000;stroke-width:1.5;"/><path d="M27.7151,192.4456 C27.7151,202.4456 76.7151,202.4456 76.7151,202.4456 C76.7151,202.4456 125.7151,202.4456 125.7151,192.4456 " fill="none" style="stroke:#000000;stroke-width:1.5;"/><text fill="#000000" font-family="sans-serif" font-size="14" lengthAdjust="spacing" textLength="78" x="37.7151" y="219.4407">github.com</text><!--MD5=[094b14487dd3dadab3686c46fea3957b]
entity PackageServer--><path d="M213.7151,192.4456 C213.7151,182.4456 261.7151,182.4456 261.7151,182.4456 C261.7151,182.4456 309.7151,182.4456 309.7151,192.4456 L309.7151,217.7425 C309.7151,227.7425 261.7151,227.7425 261.7151,227.7425 C261.7151,227.7425 213.7151,227.7425 213.7151,217.7425 L213.7151,192.4456 " fill="#FEFECE" filter="url(#fjhr3m6e76ww8)" style="stroke:#000000;stroke-width:1.5;"/><path d="M213.7151,192.4456 C213.7151,202.4456 261.7151,202.4456 261.7151,202.4456 C261.7151,202.4456 309.7151,202.4456 309.7151,192.4456 " fill="none" style="stroke:#000000;stroke-width:1.5;"/><text fill="#000000" font-family="sans-serif" font-size="14" lengthAdjust="spacing" textLength="76" x="223.7151" y="219.4407">npmjs.com</text><!--MD5=[76793f85056a952d2dcc59bb17daab8b]
entity CICDServer--><polygon fill="#FEFECE" filter="url(#fjhr3m6e76ww8)" points="106.7151,86.4456,116.7151,76.4456,232.7151,76.4456,232.7151,112.7425,222.7151,122.7425,106.7151,122.7425,106.7151,86.4456" style="stroke:#000000;stroke-width:1.5;"/><line style="stroke:#000000;stroke-width:1.5;" x1="222.7151" x2="232.7151" y1="86.4456" y2="76.4456"/><line style="stroke:#000000;stroke-width:1.5;" x1="106.7151" x2="222.7151" y1="86.4456" y2="86.4456"/><line style="stroke:#000000;stroke-width:1.5;" x1="222.7151" x2="222.7151" y1="86.4456" y2="122.7425"/><text fill="#000000" font-family="sans-serif" font-size="14" lengthAdjust="spacing" textLength="86" x="121.7151" y="109.4407">travis-ci.com</text><!--MD5=[034cc5895b2ef7c10223406b60669bb6]
entity Producer--><ellipse cx="117.7151" cy="296.9456" fill="#FEFECE" filter="url(#fjhr3m6e76ww8)" rx="8" ry="8" style="stroke:#A80036;stroke-width:1.5;"/><path d="M117.7151,304.9456 L117.7151,331.9456 M104.7151,312.9456 L130.7151,312.9456 M117.7151,331.9456 L104.7151,346.9456 M117.7151,331.9456 L130.7151,346.9456 " fill="none" filter="url(#fjhr3m6e76ww8)" style="stroke:#A80036;stroke-width:1.5;"/><text fill="#000000" font-family="sans-serif" font-size="14" lengthAdjust="spacing" textLength="63" x="86.2151" y="365.4407">Producer</text><!--MD5=[4d65782647d64e21a92b473b2db819be]
entity Consumer--><ellipse cx="220.7151" cy="296.9456" fill="#FEFECE" filter="url(#fjhr3m6e76ww8)" rx="8" ry="8" style="stroke:#A80036;stroke-width:1.5;"/><path d="M220.7151,304.9456 L220.7151,331.9456 M207.7151,312.9456 L233.7151,312.9456 M220.7151,331.9456 L207.7151,346.9456 M220.7151,331.9456 L233.7151,346.9456 " fill="none" filter="url(#fjhr3m6e76ww8)" style="stroke:#A80036;stroke-width:1.5;"/><text fill="#000000" font-family="sans-serif" font-size="14" lengthAdjust="spacing" textLength="72" x="184.7151" y="365.4407">Consumer</text><!--MD5=[7f5e8455ec0809130dc1fa4badb59631]
entity Ethernet--><ellipse cx="169.7151" cy="204.9456" fill="#FEFECE" filter="url(#fjhr3m6e76ww8)" rx="8" ry="8" style="stroke:#A80036;stroke-width:1.5;"/><text fill="#000000" font-family="sans-serif" font-size="14" lengthAdjust="spacing" textLength="60" x="139.7151" y="234.9407">Ethernet</text><!--MD5=[5f92ecfffbe4fc1b02d76d58a8febbce]
link VCServer to Ethernet--><path d="M125.7551,204.9456 C133.9751,204.9456 142.1951,204.9456 150.4151,204.9456 " fill="none" id="VCServer-to-Ethernet" style="stroke:#A80036;stroke-width:1.0;"/><path d="M157.3669,196.4884 A9,9 0 0 0 157.3669 213.4028" fill="none" style="stroke:#A80036;stroke-width:1.5;"/><!--MD5=[2c32866c3599fc12267d78b40e6b54dd]
link CICDServer to Ethernet--><path d="M169.7151,122.6456 C169.7151,141.3556 169.7151,167.8156 169.7151,185.4156 " fill="none" id="CICDServer-to-Ethernet" style="stroke:#A80036;stroke-width:1.0;"/><path d="M178.1723,192.4374 A9,9 0 0 0 161.2578 192.4374" fill="none" style="stroke:#A80036;stroke-width:1.5;"/><!--MD5=[c5c6717b148683b2c828f1c74077ebaa]
reverse link Ethernet to PackageServer--><path d="M189.3151,204.9456 C197.4151,204.9456 205.5051,204.9456 213.6051,204.9456 " fill="none" id="Ethernet-backto-PackageServer" style="stroke:#A80036;stroke-width:1.0;"/><path d="M182.1332,213.4028 A9,9 0 0 0 182.1332 196.4884" fill="none" style="stroke:#A80036;stroke-width:1.5;"/><!--MD5=[145e18893631eed2f69fc2433fcb1768]
reverse link Ethernet to Producer--><path d="M162.0351,223.8256 C154.8651,240.5056 143.9151,265.9756 134.6951,287.4356 " fill="none" id="Ethernet-backto-Producer" style="stroke:#A80036;stroke-width:1.0;"/><path d="M157.16,213.7466 A9,9 0 0 0 172.6944 220.4386" fill="none" style="stroke:#A80036;stroke-width:1.5;"/><!--MD5=[1bd43a444f8bf2a1ede0d1a069fbf264]
reverse link Ethernet to Consumer--><path d="M177.2551,223.8256 C184.2851,240.5056 195.0151,265.9756 204.0651,287.4356 " fill="none" id="Ethernet-backto-Consumer" style="stroke:#A80036;stroke-width:1.0;"/><path d="M166.6285,220.3881 A9,9 0 0 0 182.2138 213.8157" fill="none" style="stroke:#A80036;stroke-width:1.5;"/><!--MD5=[dc146ba806f52aff796bb2d98890475e]
@startuml nodes_graph
    title Nodes Graph

    cloud "Internet" as Internet {
        database "github.com" as VCServer
        database "npmjs.com" as PackageServer
        node "travis-ci.com" as CICDServer
        actor "Producer" as Producer
        actor "Consumer" as Consumer
        interface "Ethernet" as Ethernet
        VCServer -( Ethernet
        CICDServer - -( Ethernet
        Ethernet )- PackageServer
        Ethernet )- - Producer
        Ethernet )- - Consumer
    }
@enduml

PlantUML version 1.2021.00(Sun Jan 10 12:25:05 EET 2021)
(GPL source distribution)
Java Runtime: OpenJDK Runtime Environment
JVM: OpenJDK 64-Bit Server VM
Default Encoding: UTF-8
Language: en
Country: US
--></g></svg>