<?xml version="1.0" encoding="UTF-8" standalone="no"?><svg xmlns="http://www.w3.org/2000/svg" xmlns:xlink="http://www.w3.org/1999/xlink" contentScriptType="application/ecmascript" contentStyleType="text/css" height="790px" preserveAspectRatio="none" style="width:855px;height:790px;" version="1.1" viewBox="0 0 855 790" width="855px" zoomAndPan="magnify"><defs><filter height="300%" id="f1vjegureks44b" width="300%" x="-1" y="-1"><feGaussianBlur result="blurOut" stdDeviation="2.0"/><feColorMatrix in="blurOut" result="blurOut2" type="matrix" values="0 0 0 0 0 0 0 0 0 0 0 0 0 0 0 0 0 0 .4 0"/><feOffset dx="4.0" dy="4.0" in="blurOut2" result="blurOut3"/><feBlend in="SourceGraphic" in2="blurOut3" mode="normal"/></filter></defs><g><text fill="#000000" font-family="sans-serif" font-size="18" lengthAdjust="spacing" textLength="296" x="273" y="16.708">Deployment Base Services Graph</text><!--MD5=[46add8cf7bf384e60847f614ab2d9898]
cluster github--><polygon fill="#FFFFFF" filter="url(#f1vjegureks44b)" points="137,36.9531,147,26.9531,463,26.9531,463,118.9531,453,128.9531,137,128.9531,137,36.9531" style="stroke:#000000;stroke-width:1.5;"/><line style="stroke:#000000;stroke-width:1.5;" x1="453" x2="463" y1="36.9531" y2="26.9531"/><line style="stroke:#000000;stroke-width:1.5;" x1="137" x2="453" y1="36.9531" y2="36.9531"/><line style="stroke:#000000;stroke-width:1.5;" x1="453" x2="453" y1="36.9531" y2="128.9531"/><text fill="#000000" font-family="sans-serif" font-size="14" font-weight="bold" lengthAdjust="spacing" textLength="88" x="252" y="52.9482">github.com</text><!--MD5=[81b996cf130e327ae1daffe76400de6c]
cluster npmjs--><polygon fill="#FFFFFF" filter="url(#f1vjegureks44b)" points="501,290.9531,511,280.9531,838,280.9531,838,372.9531,828,382.9531,501,382.9531,501,290.9531" style="stroke:#000000;stroke-width:1.5;"/><line style="stroke:#000000;stroke-width:1.5;" x1="828" x2="838" y1="290.9531" y2="280.9531"/><line style="stroke:#000000;stroke-width:1.5;" x1="501" x2="828" y1="290.9531" y2="290.9531"/><line style="stroke:#000000;stroke-width:1.5;" x1="828" x2="828" y1="290.9531" y2="382.9531"/><text fill="#000000" font-family="sans-serif" font-size="14" font-weight="bold" lengthAdjust="spacing" textLength="85" x="623" y="306.9482">npmjs.com</text><!--MD5=[c08791e21b27ccaad614acc55b3ed99f]
cluster CiCdServer--><polygon fill="#FFFFFF" filter="url(#f1vjegureks44b)" points="300,290.9531,310,280.9531,477,280.9531,477,372.9531,467,382.9531,300,382.9531,300,290.9531" style="stroke:#000000;stroke-width:1.5;"/><line style="stroke:#000000;stroke-width:1.5;" x1="467" x2="477" y1="290.9531" y2="280.9531"/><line style="stroke:#000000;stroke-width:1.5;" x1="300" x2="467" y1="290.9531" y2="290.9531"/><line style="stroke:#000000;stroke-width:1.5;" x1="467" x2="467" y1="290.9531" y2="382.9531"/><text fill="#000000" font-family="sans-serif" font-size="14" font-weight="bold" lengthAdjust="spacing" textLength="101" x="334" y="306.9482">travis-ci.com</text><!--MD5=[1c42de0a5ee0bc14eed77c3435c75206]
cluster Producer--><polygon fill="#FFFFFF" filter="url(#f1vjegureks44b)" points="16,425.9531,26,415.9531,380,415.9531,380,652.9531,370,662.9531,16,662.9531,16,425.9531" style="stroke:#000000;stroke-width:1.5;"/><line style="stroke:#000000;stroke-width:1.5;" x1="370" x2="380" y1="425.9531" y2="415.9531"/><line style="stroke:#000000;stroke-width:1.5;" x1="16" x2="370" y1="425.9531" y2="425.9531"/><line style="stroke:#000000;stroke-width:1.5;" x1="370" x2="370" y1="425.9531" y2="662.9531"/><text fill="#000000" font-family="sans-serif" font-size="14" font-weight="bold" lengthAdjust="spacing" textLength="73" x="157.5" y="441.9482">Producer</text><!--MD5=[716840c101f3ddf7f4cb05a8915fb06e]
cluster Consumer--><polygon fill="#FFFFFF" filter="url(#f1vjegureks44b)" points="517,564.9531,527,554.9531,811,554.9531,811,773.9531,801,783.9531,517,783.9531,517,564.9531" style="stroke:#000000;stroke-width:1.5;"/><line style="stroke:#000000;stroke-width:1.5;" x1="801" x2="811" y1="564.9531" y2="554.9531"/><line style="stroke:#000000;stroke-width:1.5;" x1="517" x2="801" y1="564.9531" y2="564.9531"/><line style="stroke:#000000;stroke-width:1.5;" x1="801" x2="801" y1="564.9531" y2="783.9531"/><text fill="#000000" font-family="sans-serif" font-size="14" font-weight="bold" lengthAdjust="spacing" textLength="81" x="619.5" y="580.9482">Consumer</text><!--MD5=[1350349b64f67f07b4dbf1d89d7f0ce2]
entity GitRepo--><a href="https://github.com/imazzine/cli/tree/0.0.0" target="_top" title="https://github.com/imazzine/cli/tree/0.0.0" xlink:actuate="onRequest" xlink:href="https://github.com/imazzine/cli/tree/0.0.0" xlink:show="new" xlink:title="https://github.com/imazzine/cli/tree/0.0.0" xlink:type="simple"><path d="M153.5,77.4531 C153.5,67.4531 212,67.4531 212,67.4531 C212,67.4531 270.5,67.4531 270.5,77.4531 L270.5,102.75 C270.5,112.75 212,112.75 212,112.75 C212,112.75 153.5,112.75 153.5,102.75 L153.5,77.4531 " fill="#FEFECE" filter="url(#f1vjegureks44b)" style="stroke:#000000;stroke-width:1.5;"/><path d="M153.5,77.4531 C153.5,87.4531 212,87.4531 212,87.4531 C212,87.4531 270.5,87.4531 270.5,77.4531 " fill="none" style="stroke:#000000;stroke-width:1.5;"/><text fill="#000000" font-family="sans-serif" font-size="14" lengthAdjust="spacing" textLength="97" x="163.5" y="104.4482">Git Repository</text></a><!--MD5=[a02ff09f9ed47c3e420a3a68e36819ce]
entity GitServer--><polygon fill="#FEFECE" filter="url(#f1vjegureks44b)" points="340.5,76.9531,350.5,66.9531,447.5,66.9531,447.5,103.25,437.5,113.25,340.5,113.25,340.5,76.9531" style="stroke:#000000;stroke-width:1.5;"/><line style="stroke:#000000;stroke-width:1.5;" x1="437.5" x2="447.5" y1="76.9531" y2="66.9531"/><line style="stroke:#000000;stroke-width:1.5;" x1="340.5" x2="437.5" y1="76.9531" y2="76.9531"/><line style="stroke:#000000;stroke-width:1.5;" x1="437.5" x2="437.5" y1="76.9531" y2="113.25"/><text fill="#000000" font-family="sans-serif" font-size="14" lengthAdjust="spacing" textLength="67" x="355.5" y="99.9482">Git Server</text><!--MD5=[459b207f5ab4d57971bf1b67ec5037af]
entity NpmService--><polygon fill="#FEFECE" filter="url(#f1vjegureks44b)" points="517,330.9531,527,320.9531,637,320.9531,637,357.25,627,367.25,517,367.25,517,330.9531" style="stroke:#000000;stroke-width:1.5;"/><line style="stroke:#000000;stroke-width:1.5;" x1="627" x2="637" y1="330.9531" y2="320.9531"/><line style="stroke:#000000;stroke-width:1.5;" x1="517" x2="627" y1="330.9531" y2="330.9531"/><line style="stroke:#000000;stroke-width:1.5;" x1="627" x2="627" y1="330.9531" y2="367.25"/><text fill="#000000" font-family="sans-serif" font-size="14" lengthAdjust="spacing" textLength="80" x="532" y="353.9482">Npm Server</text><!--MD5=[55cee6256b5721f70a6176ad51464280]
entity NpmPackage--><a href="https://www.npmjs.com/package/@imazzine/cli/v/0.0.0" target="_top" title="https://www.npmjs.com/package/@imazzine/cli/v/0.0.0" xlink:actuate="onRequest" xlink:href="https://www.npmjs.com/package/@imazzine/cli/v/0.0.0" xlink:show="new" xlink:title="https://www.npmjs.com/package/@imazzine/cli/v/0.0.0" xlink:type="simple"><path d="M706.5,331.4531 C706.5,321.4531 764,321.4531 764,321.4531 C764,321.4531 821.5,321.4531 821.5,331.4531 L821.5,356.75 C821.5,366.75 764,366.75 764,366.75 C764,366.75 706.5,366.75 706.5,356.75 L706.5,331.4531 " fill="#FEFECE" filter="url(#f1vjegureks44b)" style="stroke:#000000;stroke-width:1.5;"/><path d="M706.5,331.4531 C706.5,341.4531 764,341.4531 764,341.4531 C764,341.4531 821.5,341.4531 821.5,331.4531 " fill="none" style="stroke:#000000;stroke-width:1.5;"/><text fill="#000000" font-family="sans-serif" font-size="14" lengthAdjust="spacing" textLength="95" x="716.5" y="358.4482">Npm Package</text></a><!--MD5=[c98ab5d8ae4f203003de91a9486dfef0]
entity CiCdService--><a href="https://travis-ci.com/imazzine/cli" target="_top" title="https://travis-ci.com/imazzine/cli" xlink:actuate="onRequest" xlink:href="https://travis-ci.com/imazzine/cli" xlink:show="new" xlink:title="https://travis-ci.com/imazzine/cli" xlink:type="simple"><polygon fill="#FEFECE" filter="url(#f1vjegureks44b)" points="327.5,330.9531,337.5,320.9531,460.5,320.9531,460.5,357.25,450.5,367.25,327.5,367.25,327.5,330.9531" style="stroke:#000000;stroke-width:1.5;"/><line style="stroke:#000000;stroke-width:1.5;" x1="450.5" x2="460.5" y1="330.9531" y2="320.9531"/><line style="stroke:#000000;stroke-width:1.5;" x1="327.5" x2="450.5" y1="330.9531" y2="330.9531"/><line style="stroke:#000000;stroke-width:1.5;" x1="450.5" x2="450.5" y1="330.9531" y2="367.25"/><text fill="#000000" font-family="sans-serif" font-size="14" lengthAdjust="spacing" textLength="93" x="342.5" y="353.9482">CI/CD Service</text></a><!--MD5=[d85194dc80aea54c4ea0bd980b3612fb]
entity GitClient--><a href="https://git-scm.com/downloads" target="_top" title="https://git-scm.com/downloads" xlink:actuate="onRequest" xlink:href="https://git-scm.com/downloads" xlink:show="new" xlink:title="https://git-scm.com/downloads" xlink:type="simple"><polygon fill="#FEFECE" filter="url(#f1vjegureks44b)" points="32,465.9531,42,455.9531,138,455.9531,138,492.25,128,502.25,32,502.25,32,465.9531" style="stroke:#000000;stroke-width:1.5;"/><line style="stroke:#000000;stroke-width:1.5;" x1="128" x2="138" y1="465.9531" y2="455.9531"/><line style="stroke:#000000;stroke-width:1.5;" x1="32" x2="128" y1="465.9531" y2="465.9531"/><line style="stroke:#000000;stroke-width:1.5;" x1="128" x2="128" y1="465.9531" y2="502.25"/><text fill="#000000" font-family="sans-serif" font-size="14" lengthAdjust="spacing" textLength="66" x="47" y="488.9482">GIT Client</text></a><!--MD5=[178235af382dc3ea90325230d79def78]
entity GitCli--><a href="https://git-scm.com/book/en/v2/Getting-Started-The-Command-Line" target="_top" title="https://git-scm.com/book/en/v2/Getting-Started-The-Command-Line" xlink:actuate="onRequest" xlink:href="https://git-scm.com/book/en/v2/Getting-Started-The-Command-Line" xlink:show="new" xlink:title="https://git-scm.com/book/en/v2/Getting-Started-The-Command-Line" xlink:type="simple"><ellipse cx="63" cy="617.9531" fill="#FEFECE" filter="url(#f1vjegureks44b)" rx="8" ry="8" style="stroke:#A80036;stroke-width:1.5;"/><text fill="#000000" font-family="sans-serif" font-size="14" lengthAdjust="spacing" textLength="47" x="39.5" y="647.9482">GIT CLI</text></a><!--MD5=[f086e3c5c3c203e04840586b9cef4b4e]
entity Sources--><a href="https://github.com/imazzine/cli/tree/0.0.0" target="_top" title="https://github.com/imazzine/cli/tree/0.0.0" xlink:actuate="onRequest" xlink:href="https://github.com/imazzine/cli/tree/0.0.0" xlink:show="new" xlink:title="https://github.com/imazzine/cli/tree/0.0.0" xlink:type="simple"><polygon fill="#FEFECE" filter="url(#f1vjegureks44b)" points="173,460.9531,173,497.25,273,497.25,273,470.9531,263,460.9531,173,460.9531" style="stroke:#000000;stroke-width:1.5;"/><path d="M263,460.9531 L263,470.9531 L273,470.9531 " fill="#FEFECE" style="stroke:#000000;stroke-width:1.5;"/><text fill="#000000" font-family="sans-serif" font-size="14" lengthAdjust="spacing" textLength="80" x="183" y="483.9482">Source files</text></a><!--MD5=[9a3374a3169cb2612ce2426657880941]
entity CiCdConf--><a href="https://github.com/imazzine/cli/blob/0.0.0/.travis.yml" target="_top" title="https://github.com/imazzine/cli/blob/0.0.0/.travis.yml" xlink:actuate="onRequest" xlink:href="https://github.com/imazzine/cli/blob/0.0.0/.travis.yml" xlink:show="new" xlink:title="https://github.com/imazzine/cli/blob/0.0.0/.travis.yml" xlink:type="simple"><polygon fill="#FEFECE" filter="url(#f1vjegureks44b)" points="129.5,599.9531,129.5,636.25,216.5,636.25,216.5,609.9531,206.5,599.9531,129.5,599.9531" style="stroke:#000000;stroke-width:1.5;"/><path d="M206.5,599.9531 L206.5,609.9531 L216.5,609.9531 " fill="#FEFECE" style="stroke:#000000;stroke-width:1.5;"/><text fill="#000000" font-family="sans-serif" font-size="14" lengthAdjust="spacing" textLength="67" x="139.5" y="622.9482">.travis.yml</text></a><!--MD5=[04e55c30743905640dc216e7c3ae3042]
entity NpmConfig--><a href="https://github.com/imazzine/cli/blob/0.0.0/package.json" target="_top" title="https://github.com/imazzine/cli/blob/0.0.0/package.json" xlink:actuate="onRequest" xlink:href="https://github.com/imazzine/cli/blob/0.0.0/package.json" xlink:show="new" xlink:title="https://github.com/imazzine/cli/blob/0.0.0/package.json" xlink:type="simple"><polygon fill="#FEFECE" filter="url(#f1vjegureks44b)" points="252,599.9531,252,636.25,364,636.25,364,609.9531,354,599.9531,252,599.9531" style="stroke:#000000;stroke-width:1.5;"/><path d="M354,599.9531 L354,609.9531 L364,609.9531 " fill="#FEFECE" style="stroke:#000000;stroke-width:1.5;"/><text fill="#000000" font-family="sans-serif" font-size="14" lengthAdjust="spacing" textLength="92" x="262" y="622.9482">package.json</text></a><!--MD5=[f775127cf3fd913ff39b2c3044a899d0]
entity NpmClient--><a href="https://www.npmjs.com/get-npm" target="_top" title="https://www.npmjs.com/get-npm" xlink:actuate="onRequest" xlink:href="https://www.npmjs.com/get-npm" xlink:show="new" xlink:title="https://www.npmjs.com/get-npm" xlink:type="simple"><polygon fill="#FEFECE" filter="url(#f1vjegureks44b)" points="533,604.9531,543,594.9531,647,594.9531,647,631.25,637,641.25,533,641.25,533,604.9531" style="stroke:#000000;stroke-width:1.5;"/><line style="stroke:#000000;stroke-width:1.5;" x1="637" x2="647" y1="604.9531" y2="594.9531"/><line style="stroke:#000000;stroke-width:1.5;" x1="533" x2="637" y1="604.9531" y2="604.9531"/><line style="stroke:#000000;stroke-width:1.5;" x1="637" x2="637" y1="604.9531" y2="641.25"/><text fill="#000000" font-family="sans-serif" font-size="14" lengthAdjust="spacing" textLength="74" x="548" y="627.9482">NPM Client</text></a><!--MD5=[f3a75c3b37a7e94726756c492206595e]
entity BIN--><a href="https://docs.npmjs.com/cli-documentation/" target="_top" title="https://docs.npmjs.com/cli-documentation/" xlink:actuate="onRequest" xlink:href="https://docs.npmjs.com/cli-documentation/" xlink:show="new" xlink:title="https://docs.npmjs.com/cli-documentation/" xlink:type="simple"><ellipse cx="590" cy="738.9531" fill="#FEFECE" filter="url(#f1vjegureks44b)" rx="8" ry="8" style="stroke:#A80036;stroke-width:1.5;"/><text fill="#000000" font-family="sans-serif" font-size="14" lengthAdjust="spacing" textLength="55" x="562.5" y="768.9482">NPM CLI</text></a><!--MD5=[98310410f701a6b73402028e85d1644a]
entity Binaries--><polygon fill="#FEFECE" filter="url(#f1vjegureks44b)" points="720.5,599.9531,720.5,636.25,795.5,636.25,795.5,609.9531,785.5,599.9531,720.5,599.9531" style="stroke:#000000;stroke-width:1.5;"/><path d="M785.5,599.9531 L785.5,609.9531 L795.5,609.9531 " fill="#FEFECE" style="stroke:#000000;stroke-width:1.5;"/><text fill="#000000" font-family="sans-serif" font-size="14" lengthAdjust="spacing" textLength="55" x="730.5" y="622.9482">Binaries</text><!--MD5=[6695fbe5114acec56953413226d30d75]
entity Webhooks--><a href="https://developer.github.com/webhooks/" target="_top" title="https://developer.github.com/webhooks/" xlink:actuate="onRequest" xlink:href="https://developer.github.com/webhooks/" xlink:show="new" xlink:title="https://developer.github.com/webhooks/" xlink:type="simple"><ellipse cx="394" cy="204.9531" fill="#FEFECE" filter="url(#f1vjegureks44b)" rx="8" ry="8" style="stroke:#A80036;stroke-width:1.5;"/><text fill="#000000" font-family="sans-serif" font-size="14" lengthAdjust="spacing" textLength="74" x="357" y="234.9482">Webhooks</text></a><!--MD5=[b4e0726421086817dc24d6e8c40cafef]
entity GitRestApi--><a href="https://developer.github.com/v3/" target="_top" title="https://developer.github.com/v3/" xlink:actuate="onRequest" xlink:href="https://developer.github.com/v3/" xlink:show="new" xlink:title="https://developer.github.com/v3/" xlink:type="simple"><ellipse cx="275" cy="343.9531" fill="#FEFECE" filter="url(#f1vjegureks44b)" rx="8" ry="8" style="stroke:#A80036;stroke-width:1.5;"/><text fill="#000000" font-family="sans-serif" font-size="14" lengthAdjust="spacing" textLength="57" x="246.5" y="373.9482">Rest API</text></a><!--MD5=[858ed50d90bd38be8d6ebd1473b78d48]
entity NpmInterface--><a href="https://docs.npmjs.com/" target="_top" title="https://docs.npmjs.com/" xlink:actuate="onRequest" xlink:href="https://docs.npmjs.com/" xlink:show="new" xlink:title="https://docs.npmjs.com/" xlink:type="simple"><ellipse cx="572" cy="478.9531" fill="#FEFECE" filter="url(#f1vjegureks44b)" rx="8" ry="8" style="stroke:#A80036;stroke-width:1.5;"/><text fill="#000000" font-family="sans-serif" font-size="14" lengthAdjust="spacing" textLength="96" x="524" y="508.9482">Npm Interface</text></a><!--MD5=[27fdfd7534bdf5374b7a71c5ce7d4931]
entity CiCdInterface--><a href="https://docs.travis-ci.com/user/languages/javascript-with-nodejs/" target="_top" title="https://docs.travis-ci.com/user/languages/javascript-with-nodejs/" xlink:actuate="onRequest" xlink:href="https://docs.travis-ci.com/user/languages/javascript-with-nodejs/" xlink:show="new" xlink:title="https://docs.travis-ci.com/user/languages/javascript-with-nodejs/" xlink:type="simple"><ellipse cx="436" cy="478.9531" fill="#FEFECE" filter="url(#f1vjegureks44b)" rx="8" ry="8" style="stroke:#A80036;stroke-width:1.5;"/><text fill="#000000" font-family="sans-serif" font-size="14" lengthAdjust="spacing" textLength="65" x="403.5" y="508.9482">Travis API</text></a><!--MD5=[0174d5d2421fab17bfff68687a98154f]
reverse link GitRepo to GitServer--><path d="M275.63,89.9531 C296.79,89.9531 320.13,89.9531 340.46,89.9531 " fill="none" id="GitRepo-backto-GitServer" style="stroke:#A80036;stroke-width:1.0;"/><polygon fill="#A80036" points="270.59,89.9531,279.59,93.9531,275.59,89.9531,279.59,85.9531,270.59,89.9531" style="stroke:#A80036;stroke-width:1.0;"/><text fill="#000000" font-family="sans-serif" font-size="13" lengthAdjust="spacing" textLength="33" x="289" y="83.02">store</text><!--MD5=[3f9e9fe2762d773081ef2d8e2f904710]
link GitServer to Webhooks--><path d="M394,113.0131 C394,138.3131 394,178.5331 394,195.7231 " fill="none" id="GitServer-Webhooks" style="stroke:#A80036;stroke-width:1.0;"/><!--MD5=[859898b4dc463aaf9650fdc2200fd20a]
link GitServer to GitRestApi--><path d="M374.9,113.1631 C361.48,129.6431 343.88,153.1031 332,175.9531 C302.18,233.3031 282.79,309.5631 276.9,334.6031 " fill="none" id="GitServer-GitRestApi" style="stroke:#A80036;stroke-width:1.0;"/><!--MD5=[95d624d366c50f6dbdb76c972195b305]
link NpmService to NpmPackage--><path d="M637.2,343.9531 C657.67,343.9531 680.59,343.9531 701.26,343.9531 " fill="none" id="NpmService-to-NpmPackage" style="stroke:#A80036;stroke-width:1.0;"/><polygon fill="#A80036" points="706.46,343.9531,697.46,339.9531,701.46,343.9531,697.46,347.9531,706.46,343.9531" style="stroke:#A80036;stroke-width:1.0;"/><text fill="#000000" font-family="sans-serif" font-size="13" lengthAdjust="spacing" textLength="33" x="655.25" y="337.02">store</text><!--MD5=[fe79013011ebb8d8446c49b976ca0d96]
link NpmService to NpmInterface--><path d="M576.16,367.2131 C575.03,397.3831 573.06,449.7931 572.31,469.8331 " fill="none" id="NpmService-NpmInterface" style="stroke:#A80036;stroke-width:1.0;"/><!--MD5=[8008bd6ad619e623a957e983f00473ad]
link CiCdService to CiCdInterface--><path d="M401.03,367.2131 C410.56,397.3831 427.11,449.7931 433.44,469.8331 " fill="none" id="CiCdService-CiCdInterface" style="stroke:#A80036;stroke-width:1.0;"/><!--MD5=[95a77395a90e47197d29518e4f692eb1]
reverse link Webhooks to CiCdService--><path d="M394,224.3731 C394,249.3931 394,294.0631 394,320.8531 " fill="none" id="Webhooks-backto-CiCdService" style="stroke:#A80036;stroke-width:1.0;"/><path d="M385.5428,217.1913 A9,9 0 0 0 402.4572 217.1913" fill="none" style="stroke:#A80036;stroke-width:1.5;"/><!--MD5=[cf5a0674c991a7315e336f558dc0adbe]
reverse link GitRestApi to CiCdService--><path d="M294.34,343.9531 C305.28,343.9531 316.21,343.9531 327.15,343.9531 " fill="none" id="GitRestApi-backto-CiCdService" style="stroke:#A80036;stroke-width:1.0;"/><path d="M287.3782,352.4104 A9,9 0 0 0 287.3782 335.4959" fill="none" style="stroke:#A80036;stroke-width:1.5;"/><!--MD5=[163efe91a845937bb0f0502f62e0c4bc]
link CiCdService to NpmInterface--><path d="M432.52,367.1231 C451.54,378.5931 474.51,393.2431 494,407.9531 C516.79,425.1631 540.95,447.5731 556.24,462.3531 " fill="none" id="CiCdService-to-NpmInterface" style="stroke:#A80036;stroke-width:1.0;"/><path d="M567.4544,461.4909 A9,9 0 0 0 555.6399 473.5953" fill="none" style="stroke:#A80036;stroke-width:1.5;"/><!--MD5=[8b1e2f123aac94887c061c36c219ba42]
link GitClient to GitCli--><path d="M81.47,501.9631 C76.49,532.9731 67.64,588.0531 64.31,608.7731 " fill="none" id="GitClient-GitCli" style="stroke:#A80036;stroke-width:1.0;"/><!--MD5=[aa86d5048bbf3f3e96c9c30fd6f21be6]
reverse link GitRepo to Sources--><path d="M212.99,125.7431 C215.27,205.9831 220.83,401.6831 222.51,460.7831 " fill="none" id="GitRepo-backto-Sources" style="stroke:#A80036;stroke-width:1.0;"/><polygon fill="#FFFFFF" points="212.61,112.5931,208.7832,118.705,212.9531,124.5882,216.7799,118.4763,212.61,112.5931" style="stroke:#A80036;stroke-width:1.0;"/><text fill="#000000" font-family="sans-serif" font-size="13" lengthAdjust="spacing" textLength="23" x="186.6833" y="132.7381">0..*</text><!--MD5=[595a6f2183e63fd87e26942615235653]
reverse link Sources to CiCdConf--><path d="M212.26,509.3831 C202.23,536.8731 187.58,576.9931 179.31,599.6631 " fill="none" id="Sources-backto-CiCdConf" style="stroke:#A80036;stroke-width:1.0;"/><polygon fill="#A80036" points="216.77,497.0231,210.9556,501.2884,212.6564,508.296,218.4708,504.0308,216.77,497.0231" style="stroke:#A80036;stroke-width:1.0;"/><!--MD5=[f859170b0fbc50ee0af973f41219e1fa]
reverse link Sources to NpmConfig--><path d="M240.56,508.2631 C257.64,535.7831 283.01,576.6831 297.27,599.6631 " fill="none" id="Sources-backto-NpmConfig" style="stroke:#A80036;stroke-width:1.0;"/><polygon fill="#A80036" points="233.59,497.0231,233.357,504.2305,239.9203,507.2176,240.1533,500.0102,233.59,497.0231" style="stroke:#A80036;stroke-width:1.0;"/><!--MD5=[4bd86abc378f7afb51d831f775c2a04a]
reverse link GitRestApi to GitClient--><path d="M256.19,352.6931 C231.67,363.2531 188.02,383.6531 155,407.9531 C136.04,421.9131 117.32,440.9731 104.02,455.6831 " fill="none" id="GitRestApi-backto-GitClient" style="stroke:#A80036;stroke-width:1.0;"/><path d="M259.6075,342.0765 A9,9 0 0 0 266.1799 357.6619" fill="none" style="stroke:#A80036;stroke-width:1.5;"/><!--MD5=[c2ebfcab8a1e8a2c2342fae28df94486]
reverse link CiCdInterface to CiCdConf--><path d="M417.91,490.1631 C407.14,495.9431 393.07,502.9831 380,507.9531 C317.62,531.6631 291.74,511.8231 235,546.9531 C213.33,560.3731 194.92,583.6531 183.92,599.6631 " fill="none" id="CiCdInterface-backto-CiCdConf" style="stroke:#A80036;stroke-width:1.0;"/><path d="M419.9823,479.3703 A9,9 0 0 0 428.1208 494.1981" fill="none" style="stroke:#A80036;stroke-width:1.5;"/><!--MD5=[ef76d8d2616e93317d6d933599bf04f5]
reverse link NpmInterface to NpmConfig--><path d="M553.97,489.3131 C510.06,512.0931 397.08,570.7231 340.83,599.9131 " fill="none" id="NpmInterface-backto-NpmConfig" style="stroke:#A80036;stroke-width:1.0;"/><path d="M556.2766,478.5905 A9,9 0 0 0 564.0817 493.5965" fill="none" style="stroke:#A80036;stroke-width:1.5;"/><!--MD5=[8ac37c2300d7e014dfa3748dc10dbaf2]
reverse link NpmInterface to NpmClient--><path d="M574.38,498.0331 C577.65,522.9831 583.56,567.9331 587.1,594.8531 " fill="none" id="NpmInterface-backto-NpmClient" style="stroke:#A80036;stroke-width:1.0;"/><path d="M565.084,492.2632 A9,9 0 0 0 581.8553 490.0673" fill="none" style="stroke:#A80036;stroke-width:1.5;"/><!--MD5=[2e6a8b684f18edf3c00aa1ff48aee2c7]
link NpmClient to BIN--><path d="M590,641.0531 C590,667.9431 590,711.9631 590,729.9331 " fill="none" id="NpmClient-BIN" style="stroke:#A80036;stroke-width:1.0;"/><!--MD5=[136de95d5a385b53a0fbb5a6cfc2919b]
reverse link NpmPackage to Binaries--><path d="M763.22,380.0931 C761.92,439.0731 759.35,555.8431 758.38,599.7331 " fill="none" id="NpmPackage-backto-Binaries" style="stroke:#A80036;stroke-width:1.0;"/><polygon fill="#FFFFFF" points="763.52,366.7531,759.3891,372.6638,763.2563,378.7502,767.3872,372.8396,763.52,366.7531" style="stroke:#A80036;stroke-width:1.0;"/><text fill="#000000" font-family="sans-serif" font-size="13" lengthAdjust="spacing" textLength="23" x="737.3004" y="386.9411">0..*</text><!--MD5=[9d119a971af18b43839d4190d86f27b1]
link NpmClient to Binaries--><path d="M647.35,617.9531 C669.6,617.9531 694.65,617.9531 715.27,617.9531 " fill="none" id="NpmClient-to-Binaries" style="stroke:#A80036;stroke-width:1.0;"/><polygon fill="#A80036" points="720.42,617.9531,711.42,613.9531,715.42,617.9531,711.42,621.9531,720.42,617.9531" style="stroke:#A80036;stroke-width:1.0;"/><text fill="#000000" font-family="sans-serif" font-size="13" lengthAdjust="spacing" textLength="37" x="665.25" y="611.02">install</text><!--MD5=[9677c70eba90089a46be16b8b6bbc11b]
@startuml services_graph

    title Deployment Base Services Graph

    node "github.com" as github {
        database "Git Repository" as GitRepo [[https://github.com/imazzine/cli/tree/0.0.0]]
        node "Git Server" as GitServer
        GitRepo <- GitServer: store
    }
    interface "Webhooks" as Webhooks [[https://developer.github.com/webhooks/]]
    interface "Rest API" as GitRestApi [[https://developer.github.com/v3/]]
    GitServer - - Webhooks
    GitServer - - GitRestApi
    
    node "npmjs.com" as npmjs {
        node "Npm Server" as NpmService
        database "Npm Package" as NpmPackage [[https://www.npmjs.com/package/@imazzine/cli/v/0.0.0]]
        NpmService -> NpmPackage: store
    }
    interface "Npm Interface" as NpmInterface [[https://docs.npmjs.com/]]
    NpmService - - NpmInterface

    node "travis-ci.com" as CiCdServer {
        node "CI/CD Service" as CiCdService [[https://travis-ci.com/imazzine/cli]]
    }
    interface "Travis API" as CiCdInterface [[https://docs.travis-ci.com/user/languages/javascript-with-nodejs/]]
    CiCdService - - CiCdInterface
    Webhooks )- - CiCdService
    GitRestApi )- CiCdService
    CiCdService - -( NpmInterface
    
    node "Producer" as Producer {
        node "GIT Client" as GitClient [[https://git-scm.com/downloads]]
        interface "GIT CLI" as GitCli [[https://git-scm.com/book/en/v2/Getting-Started-The-Command-Line]]
        GitClient - - GitCli

        file "Source files" as Sources [[https://github.com/imazzine/cli/tree/0.0.0]]
        file ".travis.yml" as CiCdConf [[https://github.com/imazzine/cli/blob/0.0.0/.travis.yml]]
        file "package.json" as NpmConfig [[https://github.com/imazzine/cli/blob/0.0.0/package.json]]
        GitRepo "0..*" o- - Sources
        Sources *- - CiCdConf
        Sources *- - NpmConfig
        GitRestApi )- - GitClient
        CiCdInterface )- - CiCdConf
        NpmInterface )- - NpmConfig
    }

    node "Consumer" as Consumer {
        node "NPM Client" as NpmClient [[https://www.npmjs.com/get-npm]]
        interface "NPM CLI" as BIN [[https://docs.npmjs.com/cli-documentation/]]
        NpmInterface )- - NpmClient
        NpmClient - - BIN
        file "Binaries" as Binaries
        NpmPackage "0..*" o- - Binaries
        NpmClient -> Binaries: install
    }
@enduml

PlantUML version 1.2021.00(Sun Jan 10 12:25:05 EET 2021)
(GPL source distribution)
Java Runtime: OpenJDK Runtime Environment
JVM: OpenJDK 64-Bit Server VM
Default Encoding: UTF-8
Language: en
Country: US
--></g></svg>