<?xml version="1.0" encoding="UTF-8" standalone="no"?><svg xmlns="http://www.w3.org/2000/svg" xmlns:xlink="http://www.w3.org/1999/xlink" contentScriptType="application/ecmascript" contentStyleType="text/css" height="304px" preserveAspectRatio="none" style="width:524px;height:304px;" version="1.1" viewBox="0 0 524 304" width="524px" zoomAndPan="magnify"><defs/><g><text fill="#000000" font-family="sans-serif" font-size="14" lengthAdjust="spacing" textLength="39" x="45.5" y="24.9951">name</text><text fill="#000000" font-family="sans-serif" font-size="14" lengthAdjust="spacing" textLength="94" x="125" y="24.9951">@imazzine/cli</text><line style="stroke:#A80036;stroke-width:1.0;" x1="120" x2="120" y1="10" y2="30.2969"/><line style="stroke:#A80036;stroke-width:1.0;" x1="10" x2="224" y1="30.2969" y2="30.2969"/><text fill="#000000" font-family="sans-serif" font-size="14" lengthAdjust="spacing" textLength="50" x="40" y="45.292">version</text><text fill="#000000" font-family="sans-serif" font-size="14" lengthAdjust="spacing" textLength="90" x="125" y="45.292">0.0.0-alpha.0</text><line style="stroke:#A80036;stroke-width:1.0;" x1="120" x2="120" y1="30.2969" y2="50.5938"/><line style="stroke:#A80036;stroke-width:1.0;" x1="10" x2="224" y1="50.5938" y2="50.5938"/><text fill="#000000" font-family="sans-serif" font-size="14" lengthAdjust="spacing" textLength="49" x="40.5" y="65.5889">license</text><text fill="#000000" font-family="sans-serif" font-size="14" lengthAdjust="spacing" textLength="79" x="125" y="65.5889">Apache-2.0</text><line style="stroke:#A80036;stroke-width:1.0;" x1="120" x2="120" y1="50.5938" y2="70.8906"/><line style="stroke:#A80036;stroke-width:1.0;" x1="10" x2="224" y1="70.8906" y2="70.8906"/><text fill="#000000" font-family="sans-serif" font-size="14" lengthAdjust="spacing" textLength="45" x="42.5" y="85.8857">author</text><text fill="#000000" font-family="sans-serif" font-size="14" lengthAdjust="spacing" textLength="0" x="137" y="85.8857"/><line style="stroke:#A80036;stroke-width:1.0;" x1="120" x2="120" y1="70.8906" y2="91.1875"/><line style="stroke:#A80036;stroke-width:1.0;" x1="10" x2="224" y1="91.1875" y2="91.1875"/><text fill="#000000" font-family="sans-serif" font-size="14" lengthAdjust="spacing" textLength="94" x="18" y="106.1826">publishConfig</text><text fill="#000000" font-family="sans-serif" font-size="14" lengthAdjust="spacing" textLength="0" x="137" y="106.1826"/><line style="stroke:#A80036;stroke-width:1.0;" x1="120" x2="120" y1="91.1875" y2="111.4844"/><line style="stroke:#A80036;stroke-width:1.0;" x1="10" x2="224" y1="111.4844" y2="111.4844"/><text fill="#000000" font-family="sans-serif" font-size="14" lengthAdjust="spacing" textLength="56" x="37" y="126.4795">engines</text><text fill="#000000" font-family="sans-serif" font-size="14" lengthAdjust="spacing" textLength="0" x="137" y="126.4795"/><line style="stroke:#A80036;stroke-width:1.0;" x1="120" x2="120" y1="111.4844" y2="131.7813"/><line style="stroke:#A80036;stroke-width:1.0;" x1="10" x2="224" y1="131.7813" y2="131.7813"/><text fill="#000000" font-family="sans-serif" font-size="14" lengthAdjust="spacing" textLength="30" x="50" y="146.7764">type</text><text fill="#000000" font-family="sans-serif" font-size="14" lengthAdjust="spacing" textLength="52" x="125" y="146.7764">module</text><line style="stroke:#A80036;stroke-width:1.0;" x1="120" x2="120" y1="131.7813" y2="152.0781"/><line style="stroke:#A80036;stroke-width:1.0;" x1="10" x2="224" y1="152.0781" y2="152.0781"/><text fill="#000000" font-family="sans-serif" font-size="14" lengthAdjust="spacing" textLength="84" x="23" y="167.0732">preferGlobal</text><text fill="#000000" font-family="sans-serif" font-size="14" lengthAdjust="spacing" textLength="45" x="125" y="167.0732">☑ true</text><line style="stroke:#A80036;stroke-width:1.0;" x1="120" x2="120" y1="152.0781" y2="172.375"/><line style="stroke:#A80036;stroke-width:1.0;" x1="10" x2="224" y1="172.375" y2="172.375"/><text fill="#000000" font-family="sans-serif" font-size="14" lengthAdjust="spacing" textLength="21" x="54.5" y="187.3701">bin</text><text fill="#000000" font-family="sans-serif" font-size="14" lengthAdjust="spacing" textLength="0" x="137" y="187.3701"/><line style="stroke:#A80036;stroke-width:1.0;" x1="120" x2="120" y1="172.375" y2="192.6719"/><line style="stroke:#A80036;stroke-width:1.0;" x1="10" x2="224" y1="192.6719" y2="192.6719"/><text fill="#000000" font-family="sans-serif" font-size="14" lengthAdjust="spacing" textLength="100" x="15" y="207.667">dependencies</text><text fill="#000000" font-family="sans-serif" font-size="14" lengthAdjust="spacing" textLength="0" x="137" y="207.667"/><line style="stroke:#A80036;stroke-width:1.0;" x1="120" x2="120" y1="192.6719" y2="212.9688"/><rect fill="none" height="202.9688" rx="5" ry="5" style="stroke:#A80036;stroke-width:1.5;" width="214" x="10" y="10"/><text fill="#000000" font-family="sans-serif" font-size="14" lengthAdjust="spacing" textLength="39" x="293" y="30.9951">name</text><text fill="#000000" font-family="sans-serif" font-size="14" lengthAdjust="spacing" textLength="103" x="342" y="30.9951">Artem Lytvynov</text><line style="stroke:#A80036;stroke-width:1.0;" x1="337" x2="337" y1="16" y2="36.2969"/><line style="stroke:#A80036;stroke-width:1.0;" x1="288" x2="485" y1="36.2969" y2="36.2969"/><text fill="#000000" font-family="sans-serif" font-size="14" lengthAdjust="spacing" textLength="36" x="294.5" y="51.292">email</text><text fill="#000000" font-family="sans-serif" font-size="14" lengthAdjust="spacing" textLength="138" x="342" y="51.292">buntarb@gmail.com</text><line style="stroke:#A80036;stroke-width:1.0;" x1="337" x2="337" y1="36.2969" y2="56.5938"/><rect fill="none" height="40.5938" rx="5" ry="5" style="stroke:#A80036;stroke-width:1.5;" width="197" x="288" y="16"/><text fill="#000000" font-family="sans-serif" font-size="14" lengthAdjust="spacing" textLength="51" x="266" y="89.9951">registry</text><text fill="#000000" font-family="sans-serif" font-size="14" lengthAdjust="spacing" textLength="180" x="327" y="89.9951">https://registry.npmjs.org/</text><line style="stroke:#A80036;stroke-width:1.0;" x1="322" x2="322" y1="75" y2="95.2969"/><line style="stroke:#A80036;stroke-width:1.0;" x1="261" x2="512" y1="95.2969" y2="95.2969"/><text fill="#000000" font-family="sans-serif" font-size="14" lengthAdjust="spacing" textLength="49" x="267" y="110.292">access</text><text fill="#000000" font-family="sans-serif" font-size="14" lengthAdjust="spacing" textLength="41" x="327" y="110.292">public</text><line style="stroke:#A80036;stroke-width:1.0;" x1="322" x2="322" y1="95.2969" y2="115.5938"/><rect fill="none" height="40.5938" rx="5" ry="5" style="stroke:#A80036;stroke-width:1.5;" width="251" x="261" y="75"/><text fill="#000000" font-family="sans-serif" font-size="14" lengthAdjust="spacing" textLength="36" x="329.5" y="149.4951">node</text><text fill="#000000" font-family="sans-serif" font-size="14" lengthAdjust="spacing" textLength="68" x="375.5" y="149.4951">&gt;=14.0.0</text><line style="stroke:#A80036;stroke-width:1.0;" x1="370.5" x2="370.5" y1="134.5" y2="154.7969"/><rect fill="none" height="20.2969" rx="5" ry="5" style="stroke:#A80036;stroke-width:1.5;" width="124" x="324.5" y="134.5"/><text fill="#000000" font-family="sans-serif" font-size="14" lengthAdjust="spacing" textLength="16" x="354.5" y="187.4951">zz</text><text fill="#000000" font-family="sans-serif" font-size="14" lengthAdjust="spacing" textLength="38" x="380.5" y="187.4951">./cli.js</text><line style="stroke:#A80036;stroke-width:1.0;" x1="375.5" x2="375.5" y1="172.5" y2="192.7969"/><rect fill="none" height="20.2969" rx="5" ry="5" style="stroke:#A80036;stroke-width:1.5;" width="74" x="349.5" y="172.5"/><text fill="#000000" font-family="sans-serif" font-size="14" lengthAdjust="spacing" textLength="83" x="316.5" y="225.9951">commander</text><text fill="#000000" font-family="sans-serif" font-size="14" lengthAdjust="spacing" textLength="47" x="416" y="225.9951">^6.2.0</text><line style="stroke:#A80036;stroke-width:1.0;" x1="411" x2="411" y1="211" y2="231.2969"/><line style="stroke:#A80036;stroke-width:1.0;" x1="305" x2="468" y1="231.2969" y2="231.2969"/><text fill="#000000" font-family="sans-serif" font-size="14" lengthAdjust="spacing" textLength="48" x="334" y="246.292">dotenv</text><text fill="#000000" font-family="sans-serif" font-size="14" lengthAdjust="spacing" textLength="47" x="416" y="246.292">^8.2.0</text><line style="stroke:#A80036;stroke-width:1.0;" x1="411" x2="411" y1="231.2969" y2="251.5938"/><line style="stroke:#A80036;stroke-width:1.0;" x1="305" x2="468" y1="251.5938" y2="251.5938"/><text fill="#000000" font-family="sans-serif" font-size="14" lengthAdjust="spacing" textLength="30" x="343" y="266.5889">uuid</text><text fill="#000000" font-family="sans-serif" font-size="14" lengthAdjust="spacing" textLength="47" x="416" y="266.5889">^8.3.2</text><line style="stroke:#A80036;stroke-width:1.0;" x1="411" x2="411" y1="251.5938" y2="271.8906"/><line style="stroke:#A80036;stroke-width:1.0;" x1="305" x2="468" y1="271.8906" y2="271.8906"/><text fill="#000000" font-family="sans-serif" font-size="14" lengthAdjust="spacing" textLength="96" x="310" y="286.8857">resolve-global</text><text fill="#000000" font-family="sans-serif" font-size="14" lengthAdjust="spacing" textLength="47" x="416" y="286.8857">^1.0.0</text><line style="stroke:#A80036;stroke-width:1.0;" x1="411" x2="411" y1="271.8906" y2="292.1875"/><rect fill="none" height="81.1875" rx="5" ry="5" style="stroke:#A80036;stroke-width:1.5;" width="163" x="305" y="211"/><path d="M212,80.5 L225,80.5 C242.3333,80.5 244.5002,70.8104 261,65.5 C267.9981,63.2477 275.2692,61.0941 282.6264,59.0513 " fill="none" style="stroke:#A80036;stroke-width:1.0;stroke-dasharray:3.0,3.0;"/><path d="M283.4286,62.003 L284.8402,58.4497 L281.8243,56.0997 L290.0056,57.0459 L283.4286,62.003 " fill="#A80036" style="stroke:#A80036;stroke-width:1.0;"/><ellipse cx="212" cy="80.5" fill="#A80036" rx="3" ry="3" style="stroke:#A80036;stroke-width:1.0;"/><path d="M212,100.5 L225,100.5 C234.2677,100.5 243.8341,100.4162 253.4665,100.2703 " fill="none" style="stroke:#A80036;stroke-width:1.0;stroke-dasharray:3.0,3.0;"/><path d="M253.5184,103.3642 L255.7869,100.2313 L253.4145,97.1764 L261.2012,100.1404 L253.5184,103.3642 " fill="#A80036" style="stroke:#A80036;stroke-width:1.0;"/><ellipse cx="212" cy="100.5" fill="#A80036" rx="3" ry="3" style="stroke:#A80036;stroke-width:1.0;"/><path d="M212,121.5 L225,121.5 C234.397,121.5 277.5584,127.7197 316.8268,133.6903 " fill="none" style="stroke:#A80036;stroke-width:1.0;stroke-dasharray:3.0,3.0;"/><path d="M316.3513,136.8065 L319.164,134.047 L317.3024,130.5741 L324.6174,134.8792 L316.3513,136.8065 " fill="#A80036" style="stroke:#A80036;stroke-width:1.0;"/><ellipse cx="212" cy="121.5" fill="#A80036" rx="3" ry="3" style="stroke:#A80036;stroke-width:1.0;"/><path d="M212,182.5 L225,182.5 C264.721,182.5 309.9543,182.5 342.3404,182.5 " fill="none" style="stroke:#A80036;stroke-width:1.0;stroke-dasharray:3.0,3.0;"/><path d="M342.3404,185.5127 L344.5999,182.5 L342.3404,179.4873 L349.8722,182.5 L342.3404,185.5127 " fill="#A80036" style="stroke:#A80036;stroke-width:1.0;"/><ellipse cx="212" cy="182.5" fill="#A80036" rx="3" ry="3" style="stroke:#A80036;stroke-width:1.0;"/><path d="M212,202.5 L225,202.5 C249.1231,202.5 274.4327,207.5969 297.6544,214.5029 " fill="none" style="stroke:#A80036;stroke-width:1.0;stroke-dasharray:3.0,3.0;"/><path d="M296.7337,217.4877 L299.893,215.1934 L298.575,211.5181 L305.1164,216.8046 L296.7337,217.4877 " fill="#A80036" style="stroke:#A80036;stroke-width:1.0;"/><ellipse cx="212" cy="202.5" fill="#A80036" rx="3" ry="3" style="stroke:#A80036;stroke-width:1.0;"/><!--MD5=[76f6673cefcb7b10d10cf145d90379ae]
@startjson cliPackageJson
{
    "name": "@imazzine/cli",
    "version": "0.0.0-alpha.0",
    "license": "Apache-2.0",
    "author": {
        "name": "Artem Lytvynov",
        "email": "buntarb@gmail.com"
    },
    "publishConfig": {
        "registry": "https://registry.npmjs.org/",
        "access": "public"
    },
    "engines": {
        "node": ">=14.0.0"
    },
    "type": "module",
    "preferGlobal": true,
    "bin": {
        "zz": "./cli.js"
    },
    "dependencies": {
        "commander": "^6.2.0",
        "dotenv": "^8.2.0",
        "uuid": "^8.3.2",
        "resolve-global": "^1.0.0"
    }
}
@endjson

PlantUML version 1.2021.00(Sun Jan 10 12:25:05 EET 2021)
(GPL source distribution)
Java Runtime: OpenJDK Runtime Environment
JVM: OpenJDK 64-Bit Server VM
Default Encoding: UTF-8
Language: en
Country: US
--></g></svg>