<?xml version="1.0" encoding="UTF-8" standalone="no"?><svg xmlns="http://www.w3.org/2000/svg" xmlns:xlink="http://www.w3.org/1999/xlink" contentScriptType="application/ecmascript" contentStyleType="text/css" height="437px" preserveAspectRatio="none" style="width:833px;height:437px;" version="1.1" viewBox="0 0 833 437" width="833px" zoomAndPan="magnify"><defs/><g><text fill="#000000" font-family="sans-serif" font-size="14" lengthAdjust="spacing" textLength="39" x="59" y="42.4951">name</text><text fill="#000000" font-family="sans-serif" font-size="14" lengthAdjust="spacing" textLength="94" x="152" y="42.4951">@imazzine/cli</text><line style="stroke:#A80036;stroke-width:1.0;" x1="147" x2="147" y1="27.5" y2="47.7969"/><line style="stroke:#A80036;stroke-width:1.0;" x1="10" x2="251" y1="47.7969" y2="47.7969"/><text fill="#000000" font-family="sans-serif" font-size="14" lengthAdjust="spacing" textLength="50" x="53.5" y="62.792">version</text><text fill="#000000" font-family="sans-serif" font-size="14" lengthAdjust="spacing" textLength="90" x="152" y="62.792">0.0.0-alpha.0</text><line style="stroke:#A80036;stroke-width:1.0;" x1="147" x2="147" y1="47.7969" y2="68.0938"/><line style="stroke:#A80036;stroke-width:1.0;" x1="10" x2="251" y1="68.0938" y2="68.0938"/><text fill="#000000" font-family="sans-serif" font-size="14" lengthAdjust="spacing" textLength="49" x="54" y="83.0889">license</text><text fill="#000000" font-family="sans-serif" font-size="14" lengthAdjust="spacing" textLength="79" x="152" y="83.0889">Apache-2.0</text><line style="stroke:#A80036;stroke-width:1.0;" x1="147" x2="147" y1="68.0938" y2="88.3906"/><line style="stroke:#A80036;stroke-width:1.0;" x1="10" x2="251" y1="88.3906" y2="88.3906"/><text fill="#000000" font-family="sans-serif" font-size="14" lengthAdjust="spacing" textLength="45" x="56" y="103.3857">author</text><text fill="#000000" font-family="sans-serif" font-size="14" lengthAdjust="spacing" textLength="0" x="164" y="103.3857"/><line style="stroke:#A80036;stroke-width:1.0;" x1="147" x2="147" y1="88.3906" y2="108.6875"/><line style="stroke:#A80036;stroke-width:1.0;" x1="10" x2="251" y1="108.6875" y2="108.6875"/><text fill="#000000" font-family="sans-serif" font-size="14" lengthAdjust="spacing" textLength="94" x="31.5" y="123.6826">publishConfig</text><text fill="#000000" font-family="sans-serif" font-size="14" lengthAdjust="spacing" textLength="0" x="164" y="123.6826"/><line style="stroke:#A80036;stroke-width:1.0;" x1="147" x2="147" y1="108.6875" y2="128.9844"/><line style="stroke:#A80036;stroke-width:1.0;" x1="10" x2="251" y1="128.9844" y2="128.9844"/><text fill="#000000" font-family="sans-serif" font-size="14" lengthAdjust="spacing" textLength="56" x="50.5" y="143.9795">engines</text><text fill="#000000" font-family="sans-serif" font-size="14" lengthAdjust="spacing" textLength="0" x="164" y="143.9795"/><line style="stroke:#A80036;stroke-width:1.0;" x1="147" x2="147" y1="128.9844" y2="149.2813"/><line style="stroke:#A80036;stroke-width:1.0;" x1="10" x2="251" y1="149.2813" y2="149.2813"/><text fill="#000000" font-family="sans-serif" font-size="14" lengthAdjust="spacing" textLength="30" x="63.5" y="164.2764">type</text><text fill="#000000" font-family="sans-serif" font-size="14" lengthAdjust="spacing" textLength="52" x="152" y="164.2764">module</text><line style="stroke:#A80036;stroke-width:1.0;" x1="147" x2="147" y1="149.2813" y2="169.5781"/><line style="stroke:#A80036;stroke-width:1.0;" x1="10" x2="251" y1="169.5781" y2="169.5781"/><text fill="#000000" font-family="sans-serif" font-size="14" lengthAdjust="spacing" textLength="84" x="36.5" y="184.5732">preferGlobal</text><text fill="#000000" font-family="sans-serif" font-size="14" lengthAdjust="spacing" textLength="45" x="152" y="184.5732">☑ true</text><line style="stroke:#A80036;stroke-width:1.0;" x1="147" x2="147" y1="169.5781" y2="189.875"/><line style="stroke:#A80036;stroke-width:1.0;" x1="10" x2="251" y1="189.875" y2="189.875"/><text fill="#000000" font-family="sans-serif" font-size="14" lengthAdjust="spacing" textLength="127" x="15" y="204.8701">devDependencies</text><text fill="#000000" font-family="sans-serif" font-size="14" lengthAdjust="spacing" textLength="0" x="164" y="204.8701"/><line style="stroke:#A80036;stroke-width:1.0;" x1="147" x2="147" y1="189.875" y2="210.1719"/><line style="stroke:#A80036;stroke-width:1.0;" x1="10" x2="251" y1="210.1719" y2="210.1719"/><text fill="#000000" font-family="sans-serif" font-size="14" lengthAdjust="spacing" textLength="100" x="28.5" y="225.167">dependencies</text><text fill="#000000" font-family="sans-serif" font-size="14" lengthAdjust="spacing" textLength="0" x="164" y="225.167"/><line style="stroke:#A80036;stroke-width:1.0;" x1="147" x2="147" y1="210.1719" y2="230.4688"/><line style="stroke:#A80036;stroke-width:1.0;" x1="10" x2="251" y1="230.4688" y2="230.4688"/><text fill="#000000" font-family="sans-serif" font-size="14" lengthAdjust="spacing" textLength="46" x="55.5" y="245.4639">scripts</text><text fill="#000000" font-family="sans-serif" font-size="14" lengthAdjust="spacing" textLength="0" x="164" y="245.4639"/><line style="stroke:#A80036;stroke-width:1.0;" x1="147" x2="147" y1="230.4688" y2="250.7656"/><line style="stroke:#A80036;stroke-width:1.0;" x1="10" x2="251" y1="250.7656" y2="250.7656"/><text fill="#000000" font-family="sans-serif" font-size="14" lengthAdjust="spacing" textLength="21" x="68" y="265.7607">bin</text><text fill="#000000" font-family="sans-serif" font-size="14" lengthAdjust="spacing" textLength="0" x="164" y="265.7607"/><line style="stroke:#A80036;stroke-width:1.0;" x1="147" x2="147" y1="250.7656" y2="271.0625"/><rect fill="none" height="243.5625" rx="5" ry="5" style="stroke:#A80036;stroke-width:1.5;" width="241" x="10" y="27.5"/><text fill="#000000" font-family="sans-serif" font-size="14" lengthAdjust="spacing" textLength="39" x="461" y="24.9951">name</text><text fill="#000000" font-family="sans-serif" font-size="14" lengthAdjust="spacing" textLength="103" x="510" y="24.9951">Artem Lytvynov</text><line style="stroke:#A80036;stroke-width:1.0;" x1="505" x2="505" y1="10" y2="30.2969"/><line style="stroke:#A80036;stroke-width:1.0;" x1="456" x2="653" y1="30.2969" y2="30.2969"/><text fill="#000000" font-family="sans-serif" font-size="14" lengthAdjust="spacing" textLength="36" x="462.5" y="45.292">email</text><text fill="#000000" font-family="sans-serif" font-size="14" lengthAdjust="spacing" textLength="138" x="510" y="45.292">buntarb@gmail.com</text><line style="stroke:#A80036;stroke-width:1.0;" x1="505" x2="505" y1="30.2969" y2="50.5938"/><rect fill="none" height="40.5938" rx="5" ry="5" style="stroke:#A80036;stroke-width:1.5;" width="197" x="456" y="10"/><text fill="#000000" font-family="sans-serif" font-size="14" lengthAdjust="spacing" textLength="51" x="434" y="83.9951">registry</text><text fill="#000000" font-family="sans-serif" font-size="14" lengthAdjust="spacing" textLength="180" x="495" y="83.9951">https://registry.npmjs.org/</text><line style="stroke:#A80036;stroke-width:1.0;" x1="490" x2="490" y1="69" y2="89.2969"/><line style="stroke:#A80036;stroke-width:1.0;" x1="429" x2="680" y1="89.2969" y2="89.2969"/><text fill="#000000" font-family="sans-serif" font-size="14" lengthAdjust="spacing" textLength="49" x="435" y="104.292">access</text><text fill="#000000" font-family="sans-serif" font-size="14" lengthAdjust="spacing" textLength="41" x="495" y="104.292">public</text><line style="stroke:#A80036;stroke-width:1.0;" x1="490" x2="490" y1="89.2969" y2="109.5938"/><rect fill="none" height="40.5938" rx="5" ry="5" style="stroke:#A80036;stroke-width:1.5;" width="251" x="429" y="69"/><text fill="#000000" font-family="sans-serif" font-size="14" lengthAdjust="spacing" textLength="36" x="497.5" y="143.4951">node</text><text fill="#000000" font-family="sans-serif" font-size="14" lengthAdjust="spacing" textLength="68" x="543.5" y="143.4951">&gt;=14.0.0</text><line style="stroke:#A80036;stroke-width:1.0;" x1="538.5" x2="538.5" y1="128.5" y2="148.7969"/><rect fill="none" height="20.2969" rx="5" ry="5" style="stroke:#A80036;stroke-width:1.5;" width="124" x="492.5" y="128.5"/><text fill="#000000" font-family="sans-serif" font-size="14" lengthAdjust="spacing" textLength="25" x="509" y="181.9951">jest</text><text fill="#000000" font-family="sans-serif" font-size="14" lengthAdjust="spacing" textLength="56" x="561.5" y="181.9951">^26.6.3</text><line style="stroke:#A80036;stroke-width:1.0;" x1="556.5" x2="556.5" y1="167" y2="187.2969"/><line style="stroke:#A80036;stroke-width:1.0;" x1="486.5" x2="622.5" y1="187.2969" y2="187.2969"/><text fill="#000000" font-family="sans-serif" font-size="14" lengthAdjust="spacing" textLength="60" x="491.5" y="202.292">coveralls</text><text fill="#000000" font-family="sans-serif" font-size="14" lengthAdjust="spacing" textLength="47" x="561.5" y="202.292">^3.1.0</text><line style="stroke:#A80036;stroke-width:1.0;" x1="556.5" x2="556.5" y1="187.2969" y2="207.5938"/><rect fill="none" height="40.5938" rx="5" ry="5" style="stroke:#A80036;stroke-width:1.5;" width="136" x="486.5" y="167"/><text fill="#000000" font-family="sans-serif" font-size="14" lengthAdjust="spacing" textLength="83" x="484.5" y="240.9951">commander</text><text fill="#000000" font-family="sans-serif" font-size="14" lengthAdjust="spacing" textLength="47" x="584" y="240.9951">^6.2.0</text><line style="stroke:#A80036;stroke-width:1.0;" x1="579" x2="579" y1="226" y2="246.2969"/><line style="stroke:#A80036;stroke-width:1.0;" x1="473" x2="636" y1="246.2969" y2="246.2969"/><text fill="#000000" font-family="sans-serif" font-size="14" lengthAdjust="spacing" textLength="48" x="502" y="261.292">dotenv</text><text fill="#000000" font-family="sans-serif" font-size="14" lengthAdjust="spacing" textLength="47" x="584" y="261.292">^8.2.0</text><line style="stroke:#A80036;stroke-width:1.0;" x1="579" x2="579" y1="246.2969" y2="266.5938"/><line style="stroke:#A80036;stroke-width:1.0;" x1="473" x2="636" y1="266.5938" y2="266.5938"/><text fill="#000000" font-family="sans-serif" font-size="14" lengthAdjust="spacing" textLength="30" x="511" y="281.5889">uuid</text><text fill="#000000" font-family="sans-serif" font-size="14" lengthAdjust="spacing" textLength="47" x="584" y="281.5889">^8.3.2</text><line style="stroke:#A80036;stroke-width:1.0;" x1="579" x2="579" y1="266.5938" y2="286.8906"/><line style="stroke:#A80036;stroke-width:1.0;" x1="473" x2="636" y1="286.8906" y2="286.8906"/><text fill="#000000" font-family="sans-serif" font-size="14" lengthAdjust="spacing" textLength="96" x="478" y="301.8857">resolve-global</text><text fill="#000000" font-family="sans-serif" font-size="14" lengthAdjust="spacing" textLength="47" x="584" y="301.8857">^1.0.0</text><line style="stroke:#A80036;stroke-width:1.0;" x1="579" x2="579" y1="286.8906" y2="307.1875"/><rect fill="none" height="81.1875" rx="5" ry="5" style="stroke:#A80036;stroke-width:1.5;" width="163" x="473" y="226"/><text fill="#000000" font-family="sans-serif" font-size="14" lengthAdjust="spacing" textLength="27" x="309" y="339.9951">test</text><text fill="#000000" font-family="sans-serif" font-size="14" lengthAdjust="spacing" textLength="396" x="362" y="339.9951">node --experimental-vm-modules node_modules/.bin/jest</text><line style="stroke:#A80036;stroke-width:1.0;" x1="357" x2="357" y1="325" y2="345.2969"/><line style="stroke:#A80036;stroke-width:1.0;" x1="288" x2="821" y1="345.2969" y2="345.2969"/><text fill="#000000" font-family="sans-serif" font-size="14" lengthAdjust="spacing" textLength="59" x="293" y="360.292">test:lcov</text><text fill="#000000" font-family="sans-serif" font-size="14" lengthAdjust="spacing" textLength="36" x="362" y="360.292">node</text><text fill="#000000" font-family="sans-serif" font-size="14" lengthAdjust="spacing" text-decoration="line-through" textLength="346" x="402" y="360.292">experimental-vm-modules node_modules/.bin/jest</text><text fill="#000000" font-family="sans-serif" font-size="14" lengthAdjust="spacing" textLength="64" x="752" y="360.292">coverage</text><line style="stroke:#A80036;stroke-width:1.0;" x1="357" x2="357" y1="345.2969" y2="365.5938"/><rect fill="none" height="40.5938" rx="5" ry="5" style="stroke:#A80036;stroke-width:1.5;" width="533" x="288" y="325"/><text fill="#000000" font-family="sans-serif" font-size="14" lengthAdjust="spacing" textLength="16" x="522.5" y="399.4951">zz</text><text fill="#000000" font-family="sans-serif" font-size="14" lengthAdjust="spacing" textLength="38" x="548.5" y="399.4951">./cli.js</text><line style="stroke:#A80036;stroke-width:1.0;" x1="543.5" x2="543.5" y1="384.5" y2="404.7969"/><rect fill="none" height="20.2969" rx="5" ry="5" style="stroke:#A80036;stroke-width:1.5;" width="74" x="517.5" y="384.5"/><path d="M239,98.5 L252,98.5 C275.5891,98.5 266.9366,70.1197 288,59.5 C337.1214,34.734 397.7166,26.6752 448.6594,25.1661 " fill="none" style="stroke:#A80036;stroke-width:1.0;stroke-dasharray:3.0,3.0;"/><path d="M448.7322,28.2725 L450.9893,25.1115 L448.5866,22.0596 L456.4257,24.9841 L448.7322,28.2725 " fill="#A80036" style="stroke:#A80036;stroke-width:1.0;"/><ellipse cx="239" cy="98.5" fill="#A80036" rx="3" ry="3" style="stroke:#A80036;stroke-width:1.0;"/><path d="M239,118.5 L252,118.5 C307.725,118.5 368.9702,113.5471 421.6555,107.735 " fill="none" style="stroke:#A80036;stroke-width:1.0;stroke-dasharray:3.0,3.0;"/><path d="M422.0008,110.8187 L423.9684,107.476 L421.3102,104.6512 L429.365,106.8717 L422.0008,110.8187 " fill="#A80036" style="stroke:#A80036;stroke-width:1.0;"/><ellipse cx="239" cy="118.5" fill="#A80036" rx="3" ry="3" style="stroke:#A80036;stroke-width:1.0;"/><path d="M239,138.5 L252,138.5 C332.071,138.5 424.0838,138.5 485.2949,138.5 " fill="none" style="stroke:#A80036;stroke-width:1.0;stroke-dasharray:3.0,3.0;"/><path d="M485.2949,141.5726 L487.5993,138.5 L485.2949,135.4274 L492.9764,138.5 L485.2949,141.5726 " fill="#A80036" style="stroke:#A80036;stroke-width:1.0;"/><ellipse cx="239" cy="138.5" fill="#A80036" rx="3" ry="3" style="stroke:#A80036;stroke-width:1.0;"/><path d="M239,200.5 L252,200.5 C329.503,200.5 418.0907,196.1736 479.1806,192.5125 " fill="none" style="stroke:#A80036;stroke-width:1.0;stroke-dasharray:3.0,3.0;"/><path d="M479.3669,195.5863 L481.486,192.3728 L478.9943,189.4387 L486.8651,192.0468 L479.3669,195.5863 " fill="#A80036" style="stroke:#A80036;stroke-width:1.0;"/><ellipse cx="239" cy="200.5" fill="#A80036" rx="3" ry="3" style="stroke:#A80036;stroke-width:1.0;"/><path d="M239,220.5 L252,220.5 C324.6027,220.5 405.9153,233.6539 465.8616,245.8936 " fill="none" style="stroke:#A80036;stroke-width:1.0;stroke-dasharray:3.0,3.0;"/><path d="M465.2359,248.9225 L468.1333,246.3629 L466.4874,242.8648 L473.4337,247.458 L465.2359,248.9225 " fill="#A80036" style="stroke:#A80036;stroke-width:1.0;"/><ellipse cx="239" cy="220.5" fill="#A80036" rx="3" ry="3" style="stroke:#A80036;stroke-width:1.0;"/><path d="M239,240.5 L252,240.5 C289.3756,240.5 257.5484,294.8289 288,316.5 C290.129,318.0151 292.2928,319.4776 294.4889,320.8891 " fill="none" style="stroke:#A80036;stroke-width:1.0;stroke-dasharray:3.0,3.0;"/><path d="M292.8557,323.5622 L296.4938,322.1141 L296.1222,318.216 L301.1717,324.9723 L292.8557,323.5622 " fill="#A80036" style="stroke:#A80036;stroke-width:1.0;"/><ellipse cx="239" cy="240.5" fill="#A80036" rx="3" ry="3" style="stroke:#A80036;stroke-width:1.0;"/><path d="M239,261.5 L252,261.5 C305.133,261.5 246.291,342.5838 288,375.5 C351.6512,425.7327 452.7075,416.1268 510.1984,405.0464 " fill="none" style="stroke:#A80036;stroke-width:1.0;stroke-dasharray:3.0,3.0;"/><path d="M510.7969,408.0355 L512.4403,404.5975 L509.6,402.0572 L517.6713,403.5503 L510.7969,408.0355 " fill="#A80036" style="stroke:#A80036;stroke-width:1.0;"/><ellipse cx="239" cy="261.5" fill="#A80036" rx="3" ry="3" style="stroke:#A80036;stroke-width:1.0;"/><!--MD5=[17768b47cd098c2ee6baef4753dcf165]
@startjson cliPackageJson
{
  "name": "@imazzine/cli",
  "version": "0.0.0-alpha.0",
  "license": "Apache-2.0",
  "author": {
    "name": "Artem Lytvynov",
    "email": "buntarb@gmail.com"
  },
  "publishConfig": {
    "registry": "https://registry.npmjs.org/",
    "access": "public"
  },
  "engines": {
    "node": ">=14.0.0"
  },
  "type": "module",
  "preferGlobal": true,
  "devDependencies": {
    "jest": "^26.6.3",
    "coveralls": "^3.1.0"
  },
  "dependencies": {
    "commander": "^6.2.0",
    "dotenv": "^8.2.0",
    "uuid": "^8.3.2",
    "resolve-global": "^1.0.0"
  },
  "scripts": {
    "test": "node - -experimental-vm-modules node_modules/.bin/jest",
    "test:lcov": "node - -experimental-vm-modules node_modules/.bin/jest - -coverage"
  },
  "bin": {
    "zz": "./cli.js"
  }
}
@endjson

PlantUML version 1.2021.00(Sun Jan 10 12:25:05 EET 2021)
(GPL source distribution)
Java Runtime: OpenJDK Runtime Environment
JVM: OpenJDK 64-Bit Server VM
Default Encoding: UTF-8
Language: en
Country: US
--></g></svg>