<?xml version="1.0" encoding="UTF-8" standalone="no"?><svg xmlns="http://www.w3.org/2000/svg" xmlns:xlink="http://www.w3.org/1999/xlink" contentScriptType="application/ecmascript" contentStyleType="text/css" height="987px" preserveAspectRatio="none" style="width:523px;height:987px;" version="1.1" viewBox="0 0 523 987" width="523px" zoomAndPan="magnify"><defs><filter height="300%" id="f1onuh7h673p0q" width="300%" x="-1" y="-1"><feGaussianBlur result="blurOut" stdDeviation="2.0"/><feColorMatrix in="blurOut" result="blurOut2" type="matrix" values="0 0 0 0 0 0 0 0 0 0 0 0 0 0 0 0 0 0 .4 0"/><feOffset dx="4.0" dy="4.0" in="blurOut2" result="blurOut3"/><feBlend in="SourceGraphic" in2="blurOut3" mode="normal"/></filter></defs><g><text fill="#000000" font-family="sans-serif" font-size="18" lengthAdjust="spacing" textLength="204" x="153" y="16.708">CLI Deployment Graph</text><!--MD5=[a745650ee5ff907aaea8dc344ec07479]
cluster hostNode--><polygon fill="#E8EAF6" filter="url(#f1onuh7h673p0q)" points="16,128.9531,26,118.9531,506,118.9531,506,970.4531,496,980.4531,16,980.4531,16,128.9531" style="stroke:#000000;stroke-width:1.5;"/><line style="stroke:#000000;stroke-width:1.5;" x1="496" x2="506" y1="128.9531" y2="118.9531"/><line style="stroke:#000000;stroke-width:1.5;" x1="16" x2="496" y1="128.9531" y2="128.9531"/><line style="stroke:#000000;stroke-width:1.5;" x1="496" x2="496" y1="128.9531" y2="980.4531"/><text fill="#000000" font-family="sans-serif" font-size="14" font-weight="bold" lengthAdjust="spacing" textLength="81" x="216.5" y="144.9482">Host node</text><!--MD5=[28575b4a6c5243c1cb9accbf2ad76122]
cluster npmGlobalPackages--><polygon fill="#F6FFC7" filter="url(#f1onuh7h673p0q)" points="40,166.9531,214,166.9531,221,189.25,482,189.25,482,355.9531,40,355.9531,40,166.9531" style="stroke:#000000;stroke-width:1.5;"/><line style="stroke:#000000;stroke-width:1.5;" x1="40" x2="221" y1="189.25" y2="189.25"/><text fill="#000000" font-family="sans-serif" font-size="14" font-weight="bold" lengthAdjust="spacing" textLength="168" x="44" y="181.9482">NPM Global Packages</text><!--MD5=[056161bf2ac8d649e9340734d3277c9f]
cluster cliPackage--><polygon fill="#FFFFFF" filter="url(#f1onuh7h673p0q)" points="72,217.9531,183,217.9531,190,240.25,450,240.25,450,323.9531,72,323.9531,72,217.9531" style="stroke:#000000;stroke-width:1.5;"/><line style="stroke:#000000;stroke-width:1.5;" x1="72" x2="190" y1="240.25" y2="240.25"/><text fill="#000000" font-family="sans-serif" font-size="14" font-weight="bold" lengthAdjust="spacing" textLength="105" x="76" y="232.9482">@imazzine/cli</text><!--MD5=[4312648426a6f47f9181ce7a481857a1]
cluster projectScope--><polygon fill="#FFFFFF" filter="url(#f1onuh7h673p0q)" points="174,647.9531,332,647.9531,339,670.25,342,670.25,342,737.9531,174,737.9531,174,647.9531" style="stroke:#000000;stroke-width:1.5;"/><line style="stroke:#000000;stroke-width:1.5;" x1="174" x2="339" y1="670.25" y2="670.25"/><text fill="#000000" font-family="sans-serif" font-size="14" font-weight="bold" lengthAdjust="spacing" textLength="152" x="178" y="662.9482">Root Project Folder</text><!--MD5=[78fb5566e5787c472908e161863ae44b]
cluster nodeJs--><polygon fill="#B3E5FC" filter="url(#f1onuh7h673p0q)" points="91,452.9531,101,442.9531,407,442.9531,407,550.9531,397,560.9531,91,560.9531,91,452.9531" style="stroke:#000000;stroke-width:1.5;"/><line style="stroke:#000000;stroke-width:1.5;" x1="397" x2="407" y1="452.9531" y2="442.9531"/><line style="stroke:#000000;stroke-width:1.5;" x1="91" x2="397" y1="452.9531" y2="452.9531"/><line style="stroke:#000000;stroke-width:1.5;" x1="397" x2="397" y1="452.9531" y2="560.9531"/><text fill="#000000" font-family="sans-serif" font-size="14" font-weight="bold" lengthAdjust="spacing" textLength="128" x="181" y="468.9482">Node.js Process</text><!--MD5=[d46999e731ac0e680cf513481912f025]
entity npmClient--><a href="https://www.npmjs.com/get-npm" target="_top" title="https://www.npmjs.com/get-npm" xlink:actuate="onRequest" xlink:href="https://www.npmjs.com/get-npm" xlink:show="new" xlink:title="https://www.npmjs.com/get-npm" xlink:type="simple"><rect fill="#C9FFC7" filter="url(#f1onuh7h673p0q)" height="46.2969" style="stroke:#A80036;stroke-width:1.5;" width="114" x="42" y="679.4531"/><rect fill="#C9FFC7" height="10" style="stroke:#A80036;stroke-width:1.5;" width="15" x="136" y="684.4531"/><rect fill="#C9FFC7" height="2" style="stroke:#A80036;stroke-width:1.5;" width="4" x="134" y="686.4531"/><rect fill="#C9FFC7" height="2" style="stroke:#A80036;stroke-width:1.5;" width="4" x="134" y="690.4531"/><text fill="#000000" font-family="sans-serif" font-size="14" lengthAdjust="spacing" textLength="74" x="57" y="712.4482">NPM Client</text></a><!--MD5=[eb79f3a6f9f57bda06aea63ca3a04bf5]
entity npmBinAPI--><a href="https://docs.npmjs.com/files/package.json#bin" target="_top" title="https://docs.npmjs.com/files/package.json#bin" xlink:actuate="onRequest" xlink:href="https://docs.npmjs.com/files/package.json#bin" xlink:show="new" xlink:title="https://docs.npmjs.com/files/package.json#bin" xlink:type="simple"><ellipse cx="144" cy="809.4531" fill="#C9FFC7" filter="url(#f1onuh7h673p0q)" rx="8" ry="8" style="stroke:#A80036;stroke-width:1.5;"/><text fill="#000000" font-family="sans-serif" font-size="14" lengthAdjust="spacing" textLength="21" x="133.5" y="839.4482">bin</text></a><!--MD5=[cb2903eba423231f9ba21b5a5985c894]
entity zzInterface--><ellipse cx="215" cy="809.4531" fill="#C9FFC7" filter="url(#f1onuh7h673p0q)" rx="8" ry="8" style="stroke:#A80036;stroke-width:1.5;"/><text fill="#000000" font-family="sans-serif" font-size="14" lengthAdjust="spacing" textLength="16" x="207" y="839.4482">zz</text><!--MD5=[455f3595d45d1fa6951487f01660e9ae]
entity commandLineTool--><a href="https://en.wikipedia.org/wiki/List_of_command-line_interpreters" target="_top" title="https://en.wikipedia.org/wiki/List_of_command-line_interpreters" xlink:actuate="onRequest" xlink:href="https://en.wikipedia.org/wiki/List_of_command-line_interpreters" xlink:show="new" xlink:title="https://en.wikipedia.org/wiki/List_of_command-line_interpreters" xlink:type="simple"><rect fill="#E0E0E0" filter="url(#f1onuh7h673p0q)" height="46.2969" style="stroke:#A80036;stroke-width:1.5;" width="221" x="259.5" y="786.4531"/><rect fill="#E0E0E0" height="10" style="stroke:#A80036;stroke-width:1.5;" width="15" x="460.5" y="791.4531"/><rect fill="#E0E0E0" height="2" style="stroke:#A80036;stroke-width:1.5;" width="4" x="458.5" y="793.4531"/><rect fill="#E0E0E0" height="2" style="stroke:#A80036;stroke-width:1.5;" width="4" x="458.5" y="797.4531"/><text fill="#000000" font-family="sans-serif" font-size="14" lengthAdjust="spacing" textLength="181" x="274.5" y="819.4482">Command-Line Interpreter</text></a><path d="M107.5,893.4531 L107.5,963.9844 A0,0 0 0 0 107.5,963.9844 L322.5,963.9844 A0,0 0 0 0 322.5,963.9844 L322.5,903.4531 L312.5,893.4531 L219,893.4531 L215,818.5331 L211,893.4531 L107.5,893.4531 A0,0 0 0 0 107.5,893.4531 " fill="#FBFB77" filter="url(#f1onuh7h673p0q)" style="stroke:#A80036;stroke-width:1.0;"/><path d="M312.5,893.4531 L312.5,903.4531 L322.5,903.4531 L312.5,893.4531 " fill="#FBFB77" style="stroke:#A80036;stroke-width:1.0;"/><text fill="#000000" font-family="sans-serif" font-size="13" lengthAdjust="spacing" textLength="45" x="113.5" y="910.52">zz help</text><text fill="#000000" font-family="sans-serif" font-size="13" lengthAdjust="spacing" textLength="64" x="113.5" y="925.6528">zz version</text><text fill="#000000" font-family="sans-serif" font-size="13" lengthAdjust="spacing" textLength="169" x="113.5" y="940.7856">zz add &lt;subject&gt; &lt;path&gt;</text><text fill="#000000" font-family="sans-serif" font-size="13" lengthAdjust="spacing" textLength="194" x="113.5" y="955.9185">zz remove &lt;subject&gt; &lt;path&gt;</text><!--MD5=[1e0924554a231bf4a376e288356a4a14]
entity packageJson--><a href="./cliPackageJson.svg" target="_top" title="./cliPackageJson.svg" xlink:actuate="onRequest" xlink:href="./cliPackageJson.svg" xlink:show="new" xlink:title="./cliPackageJson.svg" xlink:type="simple"><rect fill="#C9FFC7" filter="url(#f1onuh7h673p0q)" height="39.2969" style="stroke:#000000;stroke-width:1.5;" width="122" x="285" y="260.9531"/><polygon fill="#C9FFC7" points="390,265.9531,390,279.9531,402,279.9531,402,271.9531,396,265.9531,390,265.9531" style="stroke:#000000;stroke-width:1.5;"/><line style="stroke:#000000;stroke-width:1.5;" x1="396" x2="396" y1="265.9531" y2="271.9531"/><line style="stroke:#000000;stroke-width:1.5;" x1="402" x2="396" y1="271.9531" y2="271.9531"/><text fill="#000000" font-family="sans-serif" font-size="14" lengthAdjust="spacing" textLength="92" x="295" y="286.9482">package.json</text></a><!--MD5=[04dccfb44edb074965fc7fa706e2e43f]
entity dotenvGlobal--><rect fill="#81D4FA" filter="url(#f1onuh7h673p0q)" height="39.2969" style="stroke:#000000;stroke-width:1.5;" width="59" x="190.5" y="260.9531"/><polygon fill="#81D4FA" points="232.5,265.9531,232.5,279.9531,244.5,279.9531,244.5,271.9531,238.5,265.9531,232.5,265.9531" style="stroke:#000000;stroke-width:1.5;"/><line style="stroke:#000000;stroke-width:1.5;" x1="238.5" x2="238.5" y1="265.9531" y2="271.9531"/><line style="stroke:#000000;stroke-width:1.5;" x1="244.5" x2="238.5" y1="271.9531" y2="271.9531"/><text fill="#000000" font-family="sans-serif" font-size="14" lengthAdjust="spacing" textLength="29" x="200.5" y="286.9482">.env</text><!--MD5=[6ac82680bd6cfd650e6132219f43784e]
entity cliJs--><rect fill="#C9FFC7" filter="url(#f1onuh7h673p0q)" height="39.2969" style="stroke:#000000;stroke-width:1.5;" width="59" x="96.5" y="260.9531"/><polygon fill="#C9FFC7" points="138.5,265.9531,138.5,279.9531,150.5,279.9531,150.5,271.9531,144.5,265.9531,138.5,265.9531" style="stroke:#000000;stroke-width:1.5;"/><line style="stroke:#000000;stroke-width:1.5;" x1="144.5" x2="144.5" y1="265.9531" y2="271.9531"/><line style="stroke:#000000;stroke-width:1.5;" x1="150.5" x2="144.5" y1="271.9531" y2="271.9531"/><text fill="#000000" font-family="sans-serif" font-size="14" lengthAdjust="spacing" textLength="29" x="106.5" y="286.9482">cli.js</text><!--MD5=[11438c94ae17f421dfbe4acb3270df13]
entity dotenvProject--><rect fill="#81D4FA" filter="url(#f1onuh7h673p0q)" height="39.2969" style="stroke:#000000;stroke-width:1.5;" width="59" x="191.5" y="682.9531"/><polygon fill="#81D4FA" points="233.5,687.9531,233.5,701.9531,245.5,701.9531,245.5,693.9531,239.5,687.9531,233.5,687.9531" style="stroke:#000000;stroke-width:1.5;"/><line style="stroke:#000000;stroke-width:1.5;" x1="239.5" x2="239.5" y1="687.9531" y2="693.9531"/><line style="stroke:#000000;stroke-width:1.5;" x1="245.5" x2="239.5" y1="693.9531" y2="693.9531"/><text fill="#000000" font-family="sans-serif" font-size="14" lengthAdjust="spacing" textLength="29" x="201.5" y="708.9482">.env</text><!--MD5=[c251b62818238b6f79269adc5bf7d1e2]
entity cli--><a href="./cli_app.svg" target="_top" title="./cli_app.svg" xlink:actuate="onRequest" xlink:href="./cli_app.svg" xlink:show="new" xlink:title="./cli_app.svg" xlink:type="simple"><rect fill="#C9FFC7" filter="url(#f1onuh7h673p0q)" height="46.2969" style="stroke:#A80036;stroke-width:1.5;" width="84" x="134" y="490.9531"/><rect fill="#C9FFC7" height="10" style="stroke:#A80036;stroke-width:1.5;" width="15" x="198" y="495.9531"/><rect fill="#C9FFC7" height="2" style="stroke:#A80036;stroke-width:1.5;" width="4" x="196" y="497.9531"/><rect fill="#C9FFC7" height="2" style="stroke:#A80036;stroke-width:1.5;" width="4" x="196" y="501.9531"/><text fill="#000000" font-family="sans-serif" font-size="14" lengthAdjust="spacing" textLength="44" x="149" y="523.9482">cli app</text></a><!--MD5=[a8b6a60a23690f55464f9a38d4e118dd]
entity env--><path d="M277.5,501.4531 C277.5,491.4531 330,491.4531 330,491.4531 C330,491.4531 382.5,491.4531 382.5,501.4531 L382.5,526.75 C382.5,536.75 330,536.75 330,536.75 C330,536.75 277.5,536.75 277.5,526.75 L277.5,501.4531 " fill="#81D4FA" filter="url(#f1onuh7h673p0q)" style="stroke:#000000;stroke-width:1.5;"/><path d="M277.5,501.4531 C277.5,511.4531 330,511.4531 330,511.4531 C330,511.4531 382.5,511.4531 382.5,501.4531 " fill="none" style="stroke:#000000;stroke-width:1.5;"/><text fill="#000000" font-family="sans-serif" font-size="14" lengthAdjust="spacing" textLength="85" x="287.5" y="528.4482">process.env</text><!--MD5=[c48c75591d0e096a49765046f5be3458]
entity npmRegister--><path d="M370,36.9531 C370,26.9531 442,26.9531 442,26.9531 C442,26.9531 514,26.9531 514,36.9531 L514,62.25 C514,72.25 442,72.25 442,72.25 C442,72.25 370,72.25 370,62.25 L370,36.9531 " fill="#FEFECE" filter="url(#f1onuh7h673p0q)" style="stroke:#000000;stroke-width:1.5;"/><path d="M370,36.9531 C370,46.9531 442,46.9531 442,46.9531 C442,46.9531 514,46.9531 514,36.9531 " fill="none" style="stroke:#000000;stroke-width:1.5;"/><text fill="#000000" font-family="sans-serif" font-size="14" lengthAdjust="spacing" textLength="124" x="380" y="63.9482">registry.npmjs.org</text><!--MD5=[355e158abce5470443e4f0ea70bd9490]
link cli to env--><path d="M218.08,513.9531 C234.77,513.9531 254.23,513.9531 272.2,513.9531 " fill="none" id="cli-to-env" style="stroke:#A80036;stroke-width:1.0;"/><polygon fill="#A80036" points="277.23,513.9531,268.23,509.9531,272.23,513.9531,268.23,517.9531,277.23,513.9531" style="stroke:#A80036;stroke-width:1.0;"/><text fill="#000000" font-family="sans-serif" font-size="13" lengthAdjust="spacing" textLength="23" x="236.25" y="507.02">use</text><!--MD5=[2648d04848dc86589abdfd631b032963]
reverse link npmRegister to cliPackage--><path d="M442,85.0931 C442,116.5631 442,164.0631 442,204.2269 C442,206.7371 442,209.2187 442,211.6659 C442,212.8895 442,214.1045 442,215.3102 C442,215.9131 442,216.5136 442,217.1117 " fill="none" id="npmRegister-backto-cliPackage" style="stroke:#A80036;stroke-width:1.0;"/><polygon fill="#A80036" points="442,71.9931,438,77.9931,442,83.9931,446,77.9931,442,71.9931" style="stroke:#A80036;stroke-width:1.0;"/><!--MD5=[fb7d158f3c947635295857ead34e3c2a]
link npmClient to npmBinAPI--><path d="M108.43,725.4631 C118.43,748.7931 133.7,784.4231 140.51,800.3131 " fill="none" id="npmClient-npmBinAPI" style="stroke:#A80036;stroke-width:1.0;"/><!--MD5=[41dfc110ce0876e9e316b8074ef22435]
link cliPackage to zzInterface--><path d="M442.5459,324.2132 C442.5298,325.528 442.5107,326.8675 442.4884,328.2309 C442.3993,333.6842 442.2586,339.519 442.0499,345.6828 C441.6326,358.0105 440.9434,371.6544 439.8512,386.1956 C435.4825,444.3606 424.665,516.8831 399,576.9531 C355.63,678.4531 255.33,772.7531 224.31,800.3531 " fill="none" id="cliPackage-zzInterface" style="stroke:#A80036;stroke-width:1.0;"/><!--MD5=[c697c3b7835b7dfce085cc820fc8b5d9]
reverse link npmBinAPI to zzInterface--><path d="M163.44,809.4531 C177.57,809.4531 191.69,809.4531 205.82,809.4531 " fill="none" id="npmBinAPI-backto-zzInterface" style="stroke:#A80036;stroke-width:1.0;"/><path d="M156.2282,817.9104 A9,9 0 0 0 156.2282 800.9959" fill="none" style="stroke:#A80036;stroke-width:1.5;"/><!--MD5=[93295c3514654559a160cfb3df2c5181]
reverse link zzInterface to commandLineTool--><path d="M234.3,809.4531 C242.67,809.4531 251.05,809.4531 259.42,809.4531 " fill="none" id="zzInterface-backto-commandLineTool" style="stroke:#A80036;stroke-width:1.0;"/><path d="M227.1582,817.9104 A9,9 0 0 0 227.1582 800.9959" fill="none" style="stroke:#A80036;stroke-width:1.5;"/><!--MD5=[69be9b5b0cef42b0e05504d4fd1ea025]
reverse link nodeJs to npmClient--><path d="M99,561.258 C99,561.5038 99,561.7502 99,561.9972 C99,563.9731 99,565.986 99,568.0308 C99,572.1204 99,576.3375 99,580.6406 C99,615.0656 99,654.9981 99,679.2331 " fill="none" id="nodeJs-backto-npmClient" style="stroke:#A80036;stroke-width:1.0;"/><polygon fill="#A80036" points="99,561.258,95,570.258,99,566.258,103,570.258,99,561.258" style="stroke:#A80036;stroke-width:1.0;"/><text fill="#000000" font-family="sans-serif" font-size="13" lengthAdjust="spacing" textLength="21" x="100" y="613.02">run</text><!--MD5=[44514d66e911491f4946277fba2d780c]
reverse link cliJs to nodeJs--><path d="M107.51,304.4231 C94.76,321.8131 78.9,346.9131 72,371.9531 C63.655,402.2281 70.065,436.8581 78.7275,464.2219 C80.8931,471.0628 83.1995,477.4496 85.4514,483.2007 C86.5773,486.0762 87.6896,488.7928 88.7638,491.3278 C89.3009,492.5953 89.8285,493.8174 90.3435,494.9912 C90.4723,495.2847 90.6002,495.5751 90.7274,495.8625 C90.7909,496.0062 90.8543,496.1491 90.9174,496.2913 " fill="none" id="cliJs-backto-nodeJs" style="stroke:#A80036;stroke-width:1.0;"/><polygon fill="#A80036" points="110.68,300.1731,102.091,304.9928,107.6892,304.18,108.502,309.7781,110.68,300.1731" style="stroke:#A80036;stroke-width:1.0;"/><text fill="#000000" font-family="sans-serif" font-size="13" lengthAdjust="spacing" textLength="51" x="73" y="400.02">execute</text><!--MD5=[473d4f99016c3121d3fe5aaeadef230b]
link cliJs to cli--><path d="M130.01,300.0031 C138.79,340.6931 159.79,437.9131 170.09,485.6131 " fill="none" id="cliJs-to-cli" style="stroke:#A80036;stroke-width:1.0;"/><polygon fill="#A80036" points="171.18,490.6231,173.1862,480.9808,170.1226,485.7362,165.3671,482.6726,171.18,490.6231" style="stroke:#A80036;stroke-width:1.0;"/><text fill="#000000" font-family="sans-serif" font-size="13" lengthAdjust="spacing" textLength="68" x="157" y="400.02">instantiate</text><!--MD5=[7dcf6afd6daf80ffefd11b1e6a7d0c29]
link cli to dotenvProject--><path d="M179.27,537.1431 C182.96,560.8231 189.58,599.3331 198,631.9531 C202.02,647.5131 207.68,664.6631 212.38,678.0331 " fill="none" id="cli-to-dotenvProject" style="stroke:#A80036;stroke-width:1.0;"/><polygon fill="#A80036" points="214.06,682.7731,214.8226,672.9538,212.3892,678.0606,207.2825,675.6271,214.06,682.7731" style="stroke:#A80036;stroke-width:1.0;"/><text fill="#000000" font-family="sans-serif" font-size="13" lengthAdjust="spacing" textLength="54" x="199" y="598.02">use as a</text><text fill="#000000" font-family="sans-serif" font-size="13" lengthAdjust="spacing" textLength="44" x="204" y="613.1528">project</text><text fill="#000000" font-family="sans-serif" font-size="13" lengthAdjust="spacing" textLength="49" x="201.5" y="628.2856">storage</text><!--MD5=[c9a479b090f0b8c2352755bba12d8196]
reverse link dotenvGlobal to cli--><path d="M229.28,305.0431 C238.84,332.8231 250.82,380.1031 239,418.9531 C230.71,446.2031 211.6,472.7431 196.59,490.6331 " fill="none" id="dotenvGlobal-backto-cli" style="stroke:#A80036;stroke-width:1.0;"/><polygon fill="#A80036" points="227.53,300.0831,226.741,309.9003,229.1881,304.8002,234.2883,307.2473,227.53,300.0831" style="stroke:#A80036;stroke-width:1.0;"/><text fill="#000000" font-family="sans-serif" font-size="13" lengthAdjust="spacing" textLength="54" x="245" y="385.02">use as a</text><text fill="#000000" font-family="sans-serif" font-size="13" lengthAdjust="spacing" textLength="38" x="253" y="400.1528">global</text><text fill="#000000" font-family="sans-serif" font-size="13" lengthAdjust="spacing" textLength="49" x="247.5" y="415.2856">storage</text><!--MD5=[0e8a7799250780e879c8414fda41353b]
@startuml deployment_graph
    skinparam {
        FontName "Courier New"
    }

    title CLI Deployment Graph
    database "registry.npmjs.org" as npmRegister
    node "Host node" as hostNode #e8eaf6 {
        component "NPM Client" as npmClient [[https://www.npmjs.com/get-npm]] #c9ffc7
        interface "bin" as npmBinAPI [[https://docs.npmjs.com/files/package.json#bin]] #c9ffc7
        folder "NPM Global Packages" as npmGlobalPackages #f6ffc7 {
            package "@imazzine/cli" as cliPackage  #ffffff {
                artifact "package.json" as packageJson [[./cliPackageJson.svg]] #c9ffc7
                artifact ".env" as dotenvGlobal #81d4fa
                artifact "cli.js" as cliJs #c9ffc7
            }
        }
        folder "Root Project Folder" as projectScope #ffffff {
            artifact ".env" as dotenvProject #81d4fa
        }
        node "Node.js Process" as nodeJs #b3e5fc {
            component "cli app" as cli [[./cli_app.svg]] #c9ffc7
            database "process.env" as env #81d4fa
            cli -> env: use
        }
        interface "zz" as zzInterface #c9ffc7
        component "Command-Line Interpreter" as commandLineTool [[https://en.wikipedia.org/wiki/List_of_command-line_interpreters]] #e0e0e0
        npmRegister *- - cliPackage
        npmClient - - npmBinAPI
        cliPackage - - zzInterface
        npmBinAPI )- zzInterface
        zzInterface )- commandLineTool
        nodeJs <- - npmClient: run
        cliJs <- - nodeJs: execute
        cliJs - -> cli: instantiate
        cli - -> dotenvProject: use as a\nproject\nstorage
        dotenvGlobal <- - cli: use as a\nglobal\nstorage
        note as zzCliList
            zz help
            zz version
            zz add <subject> <path>
            zz remove <subject> <path>
        end note
        zzInterface .. zzCliList
    }
@enduml

PlantUML version 1.2021.00(Sun Jan 10 12:25:05 EET 2021)
(GPL source distribution)
Java Runtime: OpenJDK Runtime Environment
JVM: OpenJDK 64-Bit Server VM
Default Encoding: UTF-8
Language: en
Country: US
--></g></svg>