<?xml version="1.0" encoding="UTF-8" standalone="no"?><svg xmlns="http://www.w3.org/2000/svg" xmlns:xlink="http://www.w3.org/1999/xlink" contentScriptType="application/ecmascript" contentStyleType="text/css" height="2206px" preserveAspectRatio="none" style="width:1078px;height:2206px;" version="1.1" viewBox="0 0 1078 2206" width="1078px" zoomAndPan="magnify"><defs><filter height="300%" id="f91hnajeq5w34" width="300%" x="-1" y="-1"><feGaussianBlur result="blurOut" stdDeviation="2.0"/><feColorMatrix in="blurOut" result="blurOut2" type="matrix" values="0 0 0 0 0 0 0 0 0 0 0 0 0 0 0 0 0 0 .4 0"/><feOffset dx="4.0" dy="4.0" in="blurOut2" result="blurOut3"/><feBlend in="SourceGraphic" in2="blurOut3" mode="normal"/></filter></defs><g><text fill="#000000" font-family="sans-serif" font-size="18" lengthAdjust="spacing" textLength="117" x="479.5" y="26.708">IDK Executor</text><ellipse cx="185" cy="69.6514" fill="#000000" filter="url(#f91hnajeq5w34)" rx="10" ry="10" style="stroke:none;stroke-width:1.0;"/><polygon fill="#FEFECE" filter="url(#f91hnajeq5w34)" points="138.5,99.6514,241.5,99.6514,231.5,133.6201,128.5,133.6201" style="stroke:#A80036;stroke-width:1.5;"/><text fill="#000000" font-family="sans-serif" font-size="12" lengthAdjust="spacing" textLength="93" x="138.5" y="120.79">const process;</text><rect fill="#FEFECE" filter="url(#f91hnajeq5w34)" height="33.9688" style="stroke:#A80036;stroke-width:1.5;" width="270" x="50" y="153.6201"/><text fill="#000000" font-family="sans-serif" font-size="12" lengthAdjust="spacing" textLength="250" x="60" y="174.7588">process.env.idk = process.env.idk || {};</text><rect fill="#FEFECE" filter="url(#f91hnajeq5w34)" height="47.9375" style="stroke:#A80036;stroke-width:1.5;" width="171" x="99.5" y="255.9912"/><text fill="#000000" font-family="sans-serif" font-size="12" lengthAdjust="spacing" textLength="112" x="109.5" y="277.1299">process.env.idk =</text><text fill="#000000" font-family="sans-serif" font-size="12" lengthAdjust="spacing" textLength="151" x="109.5" y="291.0986">getIdk('./package.json');</text><polygon fill="#FEFECE" filter="url(#f91hnajeq5w34)" points="138.5,207.5889,231.5,207.5889,243.5,219.5889,231.5,231.5889,138.5,231.5889,126.5,219.5889,138.5,207.5889" style="stroke:#A80036;stroke-width:1.5;"/><text fill="#000000" font-family="sans-serif" font-size="11" lengthAdjust="spacing" textLength="20" x="189" y="241.7993">yes</text><text fill="#000000" font-family="sans-serif" font-size="11" lengthAdjust="spacing" textLength="93" x="138.5" y="223.397">!process.env.idk</text><polygon fill="#FEFECE" filter="url(#f91hnajeq5w34)" points="185,539.8037,197,551.8037,185,563.8037,173,551.8037,185,539.8037" style="stroke:#A80036;stroke-width:1.5;"/><rect fill="#FEFECE" filter="url(#f91hnajeq5w34)" height="47.9375" style="stroke:#A80036;stroke-width:1.5;" width="190" x="90" y="632.2061"/><line style="stroke:#A80036;stroke-width:1.5;" x1="95" x2="95" y1="632.2061" y2="680.1436"/><line style="stroke:#A80036;stroke-width:1.5;" x1="275" x2="275" y1="632.2061" y2="680.1436"/><text fill="#000000" font-family="sans-serif" font-size="12" lengthAdjust="spacing" textLength="162" x="100" y="653.3447">process.env.idk.current =</text><text fill="#000000" font-family="sans-serif" font-size="12" lengthAdjust="spacing" textLength="170" x="100" y="667.3135">getCurrent(process.cwd());</text><polygon fill="#FEFECE" filter="url(#f91hnajeq5w34)" points="116,583.8037,254,583.8037,266,595.8037,254,607.8037,116,607.8037,104,595.8037,116,583.8037" style="stroke:#A80036;stroke-width:1.5;"/><text fill="#000000" font-family="sans-serif" font-size="11" lengthAdjust="spacing" textLength="20" x="189" y="618.0142">yes</text><text fill="#000000" font-family="sans-serif" font-size="11" lengthAdjust="spacing" textLength="138" x="116" y="599.6118">!process.env.idk.current</text><ellipse cx="185" cy="1954.9995" fill="#FEFECE" filter="url(#f91hnajeq5w34)" rx="10" ry="10" style="stroke:#A80036;stroke-width:1.5;"/><path d="M185.1094,1951.1714 L183.5,1955.5151 L186.7188,1955.5151 L185.1094,1951.1714 Z M184.4375,1949.9995 L185.7813,1949.9995 L189.1094,1958.7495 L187.875,1958.7495 L187.0781,1956.4995 L183.1406,1956.4995 L182.3438,1958.7495 L181.0938,1958.7495 L184.4375,1949.9995 Z " fill="#000000"/><rect fill="#FEFECE" filter="url(#f91hnajeq5w34)" height="33.9688" style="stroke:#A80036;stroke-width:1.5;" width="315" x="27.5" y="1984.9995"/><text fill="#000000" font-family="sans-serif" font-size="12" lengthAdjust="spacing" textLength="295" x="37.5" y="2006.1382">const commands = process.env.idk.commands</text><rect fill="#FEFECE" filter="url(#f91hnajeq5w34)" height="89.8438" style="stroke:#A80036;stroke-width:1.5;" width="258" x="56" y="2082.9683"/><line style="stroke:#A80036;stroke-width:1.5;" x1="61" x2="61" y1="2082.9683" y2="2172.812"/><line style="stroke:#A80036;stroke-width:1.5;" x1="309" x2="309" y1="2082.9683" y2="2172.812"/><text fill="#000000" font-family="sans-serif" font-size="12" lengthAdjust="spacing" textLength="45" x="66" y="2104.1069">require</text><text fill="#000000" font-family="sans-serif" font-size="12" lengthAdjust="spacing" textLength="172" x="82" y="2118.0757">.ensure(commands[i].path)</text><text fill="#000000" font-family="sans-serif" font-size="12" lengthAdjust="spacing" textLength="137" x="82" y="2132.0444">.then((command)=&gt;{</text><text fill="#000000" font-family="sans-serif" font-size="12" lengthAdjust="spacing" textLength="206" x="98" y="2146.0132">command.execute(process.argv)</text><text fill="#000000" font-family="sans-serif" font-size="12" lengthAdjust="spacing" textLength="17" x="82" y="2159.9819">});</text><polygon fill="#FEFECE" filter="url(#f91hnajeq5w34)" points="83,2038.9683,287,2038.9683,299,2050.9683,287,2062.9683,83,2062.9683,71,2050.9683,83,2038.9683" style="stroke:#A80036;stroke-width:1.5;"/><text fill="#000000" font-family="sans-serif" font-size="11" lengthAdjust="spacing" textLength="204" x="83" y="2054.7764">let i = 0; i &lt; commands.length; i++</text><ellipse cx="34" cy="2092.9683" fill="#FFFFFF" filter="url(#f91hnajeq5w34)" rx="10" ry="10" style="stroke:#000000;stroke-width:1.5;"/><line style="stroke:#000000;stroke-width:2.5;" x1="27.8128" x2="40.1872" y1="2086.7811" y2="2099.1554"/><line style="stroke:#000000;stroke-width:2.5;" x1="40.1872" x2="27.8128" y1="2086.7811" y2="2099.1554"/><line style="stroke:#000000;stroke-width:2.0;" x1="15" x2="15" y1="33.6982" y2="2194.812"/><polygon fill="#FEFECE" filter="url(#f91hnajeq5w34)" points="508,323.9287,547,323.9287,537,357.8975,498,357.8975" style="stroke:#A80036;stroke-width:1.5;"/><text fill="#000000" font-family="sans-serif" font-size="12" lengthAdjust="spacing" textLength="29" x="508" y="345.0674">path</text><rect fill="#FEFECE" filter="url(#f91hnajeq5w34)" height="33.9688" style="stroke:#A80036;stroke-width:1.5;" width="229" x="408" y="377.8975"/><text fill="#000000" font-family="sans-serif" font-size="12" lengthAdjust="spacing" textLength="209" x="418" y="399.0361">const package = readJson(path);</text><rect fill="#FEFECE" filter="url(#f91hnajeq5w34)" height="33.9688" style="stroke:#A80036;stroke-width:1.5;" width="282" x="381.5" y="431.8662"/><text fill="#000000" font-family="sans-serif" font-size="12" lengthAdjust="spacing" textLength="262" x="391.5" y="453.0049">package['idk'].version = package.version;</text><polygon fill="#FEFECE" filter="url(#f91hnajeq5w34)" points="455,485.835,600,485.835,590,519.8037,445,519.8037" style="stroke:#A80036;stroke-width:1.5;"/><text fill="#000000" font-family="sans-serif" font-size="12" lengthAdjust="spacing" textLength="135" x="455" y="506.9736">return package['idk'];</text><line style="stroke:#000000;stroke-width:2.0;" x1="375.5" x2="375.5" y1="33.6982" y2="2194.812"/><polygon fill="#FEFECE" filter="url(#f91hnajeq5w34)" points="834,700.1436,873,700.1436,863,734.1123,824,734.1123" style="stroke:#A80036;stroke-width:1.5;"/><text fill="#000000" font-family="sans-serif" font-size="12" lengthAdjust="spacing" textLength="29" x="834" y="721.2822">path</text><rect fill="#FEFECE" filter="url(#f91hnajeq5w34)" height="33.9688" style="stroke:#A80036;stroke-width:1.5;" width="338" x="679.5" y="798.1123"/><text fill="#000000" font-family="sans-serif" font-size="12" lengthAdjust="spacing" textLength="318" x="689.5" y="819.251">const pjson = path.resolve(path, './package.json');</text><rect fill="#FEFECE" filter="url(#f91hnajeq5w34)" height="33.9688" style="stroke:#A80036;stroke-width:1.5;" width="234" x="731.5" y="900.4834"/><text fill="#000000" font-family="sans-serif" font-size="12" lengthAdjust="spacing" textLength="214" x="741.5" y="921.6221">const package = readJson(pjson);</text><rect fill="#FEFECE" filter="url(#f91hnajeq5w34)" height="33.9688" style="stroke:#A80036;stroke-width:1.5;" width="143" x="777" y="1017.2686"/><text fill="#000000" font-family="sans-serif" font-size="12" lengthAdjust="spacing" textLength="123" x="787" y="1038.4072">const current = {};</text><rect fill="#FEFECE" filter="url(#f91hnajeq5w34)" height="33.9688" style="stroke:#A80036;stroke-width:1.5;" width="150" x="773.5" y="1071.2373"/><text fill="#000000" font-family="sans-serif" font-size="12" lengthAdjust="spacing" textLength="130" x="783.5" y="1092.376">current.path = path;</text><rect fill="#FEFECE" filter="url(#f91hnajeq5w34)" height="33.9688" style="stroke:#A80036;stroke-width:1.5;" width="248" x="724.5" y="1125.2061"/><text fill="#000000" font-family="sans-serif" font-size="12" lengthAdjust="spacing" textLength="228" x="734.5" y="1146.3447">current.config = package.idk.config;</text><rect fill="#FEFECE" filter="url(#f91hnajeq5w34)" height="33.9688" style="stroke:#A80036;stroke-width:1.5;" width="281" x="708" y="1179.1748"/><text fill="#000000" font-family="sans-serif" font-size="12" lengthAdjust="spacing" textLength="261" x="718" y="1200.3135">const projects = process.env.idk.projects</text><rect fill="#FEFECE" filter="url(#f91hnajeq5w34)" height="75.875" style="stroke:#A80036;stroke-width:1.5;" width="176" x="760.5" y="1333.8506"/><text fill="#000000" font-family="sans-serif" font-size="12" lengthAdjust="spacing" textLength="156" x="770.5" y="1354.9893">current.config = _.union(</text><text fill="#000000" font-family="sans-serif" font-size="12" lengthAdjust="spacing" textLength="92" x="786.5" y="1368.958">current.config,</text><text fill="#000000" font-family="sans-serif" font-size="12" lengthAdjust="spacing" textLength="106" x="786.5" y="1382.9268">projects[i].config</text><text fill="#000000" font-family="sans-serif" font-size="12" lengthAdjust="spacing" textLength="9" x="770.5" y="1396.8955">);</text><polygon fill="#FEFECE" filter="url(#f91hnajeq5w34)" points="753,1285.4482,944,1285.4482,956,1297.4482,944,1309.4482,753,1309.4482,741,1297.4482,753,1285.4482" style="stroke:#A80036;stroke-width:1.5;"/><text fill="#000000" font-family="sans-serif" font-size="11" lengthAdjust="spacing" textLength="20" x="852.5" y="1319.6587">yes</text><text fill="#000000" font-family="sans-serif" font-size="11" lengthAdjust="spacing" textLength="191" x="753" y="1301.2563">projects[i].path === current.path</text><polygon fill="#FEFECE" filter="url(#f91hnajeq5w34)" points="848.5,1429.7256,860.5,1441.7256,848.5,1453.7256,836.5,1441.7256,848.5,1429.7256" style="stroke:#A80036;stroke-width:1.5;"/><polygon fill="#FEFECE" filter="url(#f91hnajeq5w34)" points="755,1237.4482,942,1237.4482,954,1249.4482,942,1261.4482,755,1261.4482,743,1249.4482,755,1237.4482" style="stroke:#A80036;stroke-width:1.5;"/><text fill="#000000" font-family="sans-serif" font-size="11" lengthAdjust="spacing" textLength="187" x="755" y="1253.2563">let i = 0; i &lt; projects.length; i++</text><polygon fill="#FEFECE" filter="url(#f91hnajeq5w34)" points="802,1495.7256,905,1495.7256,895,1529.6943,792,1529.6943" style="stroke:#A80036;stroke-width:1.5;"/><text fill="#000000" font-family="sans-serif" font-size="12" lengthAdjust="spacing" textLength="93" x="802" y="1516.8643">return current;</text><ellipse cx="848.5" cy="1559.6943" fill="#FEFECE" filter="url(#f91hnajeq5w34)" rx="10" ry="10" style="stroke:#A80036;stroke-width:1.5;"/><path d="M848.6094,1555.8662 L847,1560.21 L850.2188,1560.21 L848.6094,1555.8662 Z M847.9375,1554.6943 L849.2813,1554.6943 L852.6094,1563.4443 L851.375,1563.4443 L850.5781,1561.1943 L846.6406,1561.1943 L845.8438,1563.4443 L844.5938,1563.4443 L847.9375,1554.6943 Z " fill="#000000"/><polygon fill="#FEFECE" filter="url(#f91hnajeq5w34)" points="765,954.4521,932,954.4521,944,973.6592,932,992.8662,765,992.8662,753,973.6592,765,954.4521" style="stroke:#A80036;stroke-width:1.5;"/><text fill="#000000" font-family="sans-serif" font-size="11" lengthAdjust="spacing" textLength="20" x="852.5" y="1003.0767">yes</text><text fill="#000000" font-family="sans-serif" font-size="11" lengthAdjust="spacing" textLength="91" x="765" y="964.6626">package.idk &amp;&amp;</text><text fill="#000000" font-family="sans-serif" font-size="11" lengthAdjust="spacing" textLength="167" x="765" y="977.4673">process.env.idk.version ===</text><text fill="#000000" font-family="sans-serif" font-size="11" lengthAdjust="spacing" textLength="113" x="765" y="990.272">package.idk.version</text><polygon fill="#FEFECE" filter="url(#f91hnajeq5w34)" points="815.5,852.0811,881.5,852.0811,893.5,864.0811,881.5,876.0811,815.5,876.0811,803.5,864.0811,815.5,852.0811" style="stroke:#A80036;stroke-width:1.5;"/><text fill="#000000" font-family="sans-serif" font-size="11" lengthAdjust="spacing" textLength="20" x="852.5" y="886.2915">yes</text><text fill="#000000" font-family="sans-serif" font-size="11" lengthAdjust="spacing" textLength="66" x="815.5" y="867.8892">exist(pjson)</text><polygon fill="#FEFECE" filter="url(#f91hnajeq5w34)" points="848.5,1611.6943,860.5,1623.6943,848.5,1635.6943,836.5,1623.6943,848.5,1611.6943" style="stroke:#A80036;stroke-width:1.5;"/><rect fill="#FEFECE" filter="url(#f91hnajeq5w34)" height="33.9688" style="stroke:#A80036;stroke-width:1.5;" width="137" x="780" y="1655.6943"/><text fill="#000000" font-family="sans-serif" font-size="12" lengthAdjust="spacing" textLength="117" x="790" y="1676.833">const prev = path;</text><rect fill="#FEFECE" filter="url(#f91hnajeq5w34)" height="33.9688" style="stroke:#A80036;stroke-width:1.5;" width="222" x="737.5" y="1709.6631"/><text fill="#000000" font-family="sans-serif" font-size="12" lengthAdjust="spacing" textLength="198" x="747.5" y="1730.8018">path = path.resolve(path, './..');</text><polygon fill="#FEFECE" filter="url(#f91hnajeq5w34)" points="848.5,754.1123,860.5,766.1123,848.5,778.1123,836.5,766.1123,848.5,754.1123" style="stroke:#A80036;stroke-width:1.5;"/><polygon fill="#FEFECE" filter="url(#f91hnajeq5w34)" points="809,1763.6318,888,1763.6318,900,1775.6318,888,1787.6318,809,1787.6318,797,1775.6318,809,1763.6318" style="stroke:#A80036;stroke-width:1.5;"/><text fill="#000000" font-family="sans-serif" font-size="11" lengthAdjust="spacing" textLength="79" x="809" y="1779.4399">path !== prev</text><text fill="#000000" font-family="sans-serif" font-size="11" lengthAdjust="spacing" textLength="20" x="900" y="1773.0376">yes</text><polygon fill="#FEFECE" filter="url(#f91hnajeq5w34)" points="810,1829.0308,897,1829.0308,887,1862.9995,800,1862.9995" style="stroke:#A80036;stroke-width:1.5;"/><text fill="#000000" font-family="sans-serif" font-size="12" lengthAdjust="spacing" textLength="77" x="810" y="1850.1694">return false;</text><ellipse cx="848.5" cy="1892.9995" fill="#FEFECE" filter="url(#f91hnajeq5w34)" rx="10" ry="10" style="stroke:#A80036;stroke-width:1.5;"/><path d="M848.6094,1889.1714 L847,1893.5151 L850.2188,1893.5151 L848.6094,1889.1714 Z M847.9375,1887.9995 L849.2813,1887.9995 L852.6094,1896.7495 L851.375,1896.7495 L850.5781,1894.4995 L846.6406,1894.4995 L845.8438,1896.7495 L844.5938,1896.7495 L847.9375,1887.9995 Z " fill="#000000"/><line style="stroke:#000000;stroke-width:2.0;" x1="673.5" x2="673.5" y1="33.6982" y2="2194.812"/><line style="stroke:#000000;stroke-width:2.0;" x1="1058" x2="1058" y1="33.6982" y2="2194.812"/><line style="stroke:#A80036;stroke-width:1.5;" x1="185" x2="185" y1="79.6514" y2="99.6514"/><polygon fill="#A80036" points="181,89.6514,185,99.6514,189,89.6514,185,93.6514" style="stroke:#A80036;stroke-width:1.0;"/><line style="stroke:#A80036;stroke-width:1.5;" x1="185" x2="185" y1="133.6201" y2="153.6201"/><polygon fill="#A80036" points="181,143.6201,185,153.6201,189,143.6201,185,147.6201" style="stroke:#A80036;stroke-width:1.0;"/><line style="stroke:#A80036;stroke-width:1.5;" x1="185" x2="185" y1="231.5889" y2="255.9912"/><polygon fill="#A80036" points="181,245.9912,185,255.9912,189,245.9912,185,249.9912" style="stroke:#A80036;stroke-width:1.0;"/><line style="stroke:#A80036;stroke-width:1.5;" x1="243.5" x2="336" y1="219.5889" y2="219.5889"/><polygon fill="#A80036" points="332,377.8975,336,387.8975,340,377.8975,336,381.8975" style="stroke:#A80036;stroke-width:1.5;"/><line style="stroke:#A80036;stroke-width:1.5;" x1="336" x2="336" y1="219.5889" y2="551.8037"/><line style="stroke:#A80036;stroke-width:1.5;" x1="336" x2="197" y1="551.8037" y2="551.8037"/><polygon fill="#A80036" points="207,547.8037,197,551.8037,207,555.8037,203,551.8037" style="stroke:#A80036;stroke-width:1.0;"/><line style="stroke:#A80036;stroke-width:1.5;" x1="185" x2="185" y1="187.5889" y2="207.5889"/><polygon fill="#A80036" points="181,197.5889,185,207.5889,189,197.5889,185,201.5889" style="stroke:#A80036;stroke-width:1.0;"/><line style="stroke:#A80036;stroke-width:1.5;" x1="185" x2="185" y1="607.8037" y2="632.2061"/><polygon fill="#A80036" points="181,622.2061,185,632.2061,189,622.2061,185,626.2061" style="stroke:#A80036;stroke-width:1.0;"/><line style="stroke:#A80036;stroke-width:1.5;" x1="266" x2="356.5" y1="595.8037" y2="595.8037"/><polygon fill="#A80036" points="352.5,1247.0615,356.5,1257.0615,360.5,1247.0615,356.5,1251.0615" style="stroke:#A80036;stroke-width:1.5;"/><line style="stroke:#A80036;stroke-width:1.5;" x1="356.5" x2="356.5" y1="595.8037" y2="1924.9995"/><line style="stroke:#A80036;stroke-width:1.5;" x1="356.5" x2="185" y1="1924.9995" y2="1924.9995"/><line style="stroke:#A80036;stroke-width:1.5;" x1="185" x2="185" y1="1924.9995" y2="1944.9995"/><polygon fill="#A80036" points="181,1934.9995,185,1944.9995,189,1934.9995,185,1938.9995" style="stroke:#A80036;stroke-width:1.0;"/><line style="stroke:#A80036;stroke-width:1.5;" x1="185" x2="185" y1="563.8037" y2="583.8037"/><polygon fill="#A80036" points="181,573.8037,185,583.8037,189,573.8037,185,577.8037" style="stroke:#A80036;stroke-width:1.0;"/><line style="stroke:#A80036;stroke-width:1.5;" x1="185" x2="185" y1="1964.9995" y2="1984.9995"/><polygon fill="#A80036" points="181,1974.9995,185,1984.9995,189,1974.9995,185,1978.9995" style="stroke:#A80036;stroke-width:1.0;"/><line style="stroke:#A80036;stroke-width:1.5;" x1="185" x2="185" y1="2062.9683" y2="2082.9683"/><polygon fill="#A80036" points="181,2072.9683,185,2082.9683,189,2072.9683,185,2076.9683" style="stroke:#A80036;stroke-width:1.0;"/><line style="stroke:#A80036;stroke-width:1.5;" x1="185" x2="185" y1="2172.812" y2="2182.812"/><line style="stroke:#A80036;stroke-width:1.5;" x1="185" x2="326" y1="2182.812" y2="2182.812"/><polygon fill="#A80036" points="322,2125.8901,326,2115.8901,330,2125.8901,326,2121.8901" style="stroke:#A80036;stroke-width:1.5;"/><line style="stroke:#A80036;stroke-width:1.5;" x1="326" x2="326" y1="2050.9683" y2="2182.812"/><line style="stroke:#A80036;stroke-width:1.5;" x1="326" x2="299" y1="2050.9683" y2="2050.9683"/><polygon fill="#A80036" points="309,2046.9683,299,2050.9683,309,2054.9683,305,2050.9683" style="stroke:#A80036;stroke-width:1.0;"/><line style="stroke:#A80036;stroke-width:1.5;" x1="71" x2="34" y1="2050.9683" y2="2050.9683"/><line style="stroke:#A80036;stroke-width:1.5;" x1="34" x2="34" y1="2050.9683" y2="2082.9683"/><polygon fill="#A80036" points="30,2072.9683,34,2082.9683,38,2072.9683,34,2076.9683" style="stroke:#A80036;stroke-width:1.0;"/><line style="stroke:#A80036;stroke-width:1.5;" x1="185" x2="185" y1="2018.9683" y2="2038.9683"/><polygon fill="#A80036" points="181,2028.9683,185,2038.9683,189,2028.9683,185,2032.9683" style="stroke:#A80036;stroke-width:1.0;"/><line style="stroke:#A80036;stroke-width:1.5;" x1="522.5" x2="522.5" y1="357.8975" y2="377.8975"/><polygon fill="#A80036" points="518.5,367.8975,522.5,377.8975,526.5,367.8975,522.5,371.8975" style="stroke:#A80036;stroke-width:1.0;"/><line style="stroke:#A80036;stroke-width:1.5;" x1="522.5" x2="522.5" y1="411.8662" y2="431.8662"/><polygon fill="#A80036" points="518.5,421.8662,522.5,431.8662,526.5,421.8662,522.5,425.8662" style="stroke:#A80036;stroke-width:1.0;"/><line style="stroke:#A80036;stroke-width:1.5;" x1="522.5" x2="522.5" y1="465.835" y2="485.835"/><polygon fill="#A80036" points="518.5,475.835,522.5,485.835,526.5,475.835,522.5,479.835" style="stroke:#A80036;stroke-width:1.0;"/><line style="stroke:#A80036;stroke-width:1.5;" x1="848.5" x2="848.5" y1="1051.2373" y2="1071.2373"/><polygon fill="#A80036" points="844.5,1061.2373,848.5,1071.2373,852.5,1061.2373,848.5,1065.2373" style="stroke:#A80036;stroke-width:1.0;"/><line style="stroke:#A80036;stroke-width:1.5;" x1="848.5" x2="848.5" y1="1105.2061" y2="1125.2061"/><polygon fill="#A80036" points="844.5,1115.2061,848.5,1125.2061,852.5,1115.2061,848.5,1119.2061" style="stroke:#A80036;stroke-width:1.0;"/><line style="stroke:#A80036;stroke-width:1.5;" x1="848.5" x2="848.5" y1="1159.1748" y2="1179.1748"/><polygon fill="#A80036" points="844.5,1169.1748,848.5,1179.1748,852.5,1169.1748,848.5,1173.1748" style="stroke:#A80036;stroke-width:1.0;"/><line style="stroke:#A80036;stroke-width:1.5;" x1="848.5" x2="848.5" y1="1309.4482" y2="1333.8506"/><polygon fill="#A80036" points="844.5,1323.8506,848.5,1333.8506,852.5,1323.8506,848.5,1327.8506" style="stroke:#A80036;stroke-width:1.0;"/><line style="stroke:#A80036;stroke-width:1.5;" x1="956" x2="968" y1="1297.4482" y2="1297.4482"/><polygon fill="#A80036" points="964,1361.7881,968,1371.7881,972,1361.7881,968,1365.7881" style="stroke:#A80036;stroke-width:1.5;"/><line style="stroke:#A80036;stroke-width:1.5;" x1="968" x2="968" y1="1297.4482" y2="1441.7256"/><line style="stroke:#A80036;stroke-width:1.5;" x1="968" x2="860.5" y1="1441.7256" y2="1441.7256"/><polygon fill="#A80036" points="870.5,1437.7256,860.5,1441.7256,870.5,1445.7256,866.5,1441.7256" style="stroke:#A80036;stroke-width:1.0;"/><line style="stroke:#A80036;stroke-width:1.5;" x1="848.5" x2="848.5" y1="1409.7256" y2="1429.7256"/><polygon fill="#A80036" points="844.5,1419.7256,848.5,1429.7256,852.5,1419.7256,848.5,1423.7256" style="stroke:#A80036;stroke-width:1.0;"/><line style="stroke:#A80036;stroke-width:1.5;" x1="848.5" x2="848.5" y1="1261.4482" y2="1285.4482"/><polygon fill="#A80036" points="844.5,1275.4482,848.5,1285.4482,852.5,1275.4482,848.5,1279.4482" style="stroke:#A80036;stroke-width:1.0;"/><line style="stroke:#A80036;stroke-width:1.5;" x1="848.5" x2="848.5" y1="1453.7256" y2="1463.7256"/><line style="stroke:#A80036;stroke-width:1.5;" x1="848.5" x2="980" y1="1463.7256" y2="1463.7256"/><polygon fill="#A80036" points="976,1369.7881,980,1359.7881,984,1369.7881,980,1365.7881" style="stroke:#A80036;stroke-width:1.5;"/><line style="stroke:#A80036;stroke-width:1.5;" x1="980" x2="980" y1="1249.4482" y2="1463.7256"/><line style="stroke:#A80036;stroke-width:1.5;" x1="980" x2="954" y1="1249.4482" y2="1249.4482"/><polygon fill="#A80036" points="964,1245.4482,954,1249.4482,964,1253.4482,960,1249.4482" style="stroke:#A80036;stroke-width:1.0;"/><line style="stroke:#A80036;stroke-width:1.5;" x1="743" x2="729" y1="1249.4482" y2="1249.4482"/><polygon fill="#A80036" points="725,1355.7881,729,1365.7881,733,1355.7881,729,1359.7881" style="stroke:#A80036;stroke-width:1.5;"/><line style="stroke:#A80036;stroke-width:1.5;" x1="729" x2="729" y1="1249.4482" y2="1475.7256"/><line style="stroke:#A80036;stroke-width:1.5;" x1="729" x2="848.5" y1="1475.7256" y2="1475.7256"/><line style="stroke:#A80036;stroke-width:1.5;" x1="848.5" x2="848.5" y1="1475.7256" y2="1495.7256"/><polygon fill="#A80036" points="844.5,1485.7256,848.5,1495.7256,852.5,1485.7256,848.5,1489.7256" style="stroke:#A80036;stroke-width:1.0;"/><line style="stroke:#A80036;stroke-width:1.5;" x1="848.5" x2="848.5" y1="1213.1436" y2="1237.4482"/><polygon fill="#A80036" points="844.5,1227.4482,848.5,1237.4482,852.5,1227.4482,848.5,1231.4482" style="stroke:#A80036;stroke-width:1.0;"/><line style="stroke:#A80036;stroke-width:1.5;" x1="848.5" x2="848.5" y1="1529.6943" y2="1549.6943"/><polygon fill="#A80036" points="844.5,1539.6943,848.5,1549.6943,852.5,1539.6943,848.5,1543.6943" style="stroke:#A80036;stroke-width:1.0;"/><line style="stroke:#A80036;stroke-width:1.5;" x1="848.5" x2="848.5" y1="992.8662" y2="1017.2686"/><polygon fill="#A80036" points="844.5,1007.2686,848.5,1017.2686,852.5,1007.2686,848.5,1011.2686" style="stroke:#A80036;stroke-width:1.0;"/><line style="stroke:#A80036;stroke-width:1.5;" x1="944" x2="999" y1="973.6592" y2="973.6592"/><polygon fill="#A80036" points="995,1267.2314,999,1277.2314,1003,1267.2314,999,1271.2314" style="stroke:#A80036;stroke-width:1.5;"/><line style="stroke:#A80036;stroke-width:1.5;" x1="999" x2="999" y1="973.6592" y2="1591.6943"/><line style="stroke:#A80036;stroke-width:1.5;" x1="999" x2="848.5" y1="1591.6943" y2="1591.6943"/><line style="stroke:#A80036;stroke-width:1.5;" x1="848.5" x2="848.5" y1="1591.6943" y2="1611.6943"/><polygon fill="#A80036" points="844.5,1601.6943,848.5,1611.6943,852.5,1601.6943,848.5,1605.6943" style="stroke:#A80036;stroke-width:1.0;"/><line style="stroke:#A80036;stroke-width:1.5;" x1="848.5" x2="848.5" y1="934.4521" y2="954.4521"/><polygon fill="#A80036" points="844.5,944.4521,848.5,954.4521,852.5,944.4521,848.5,948.4521" style="stroke:#A80036;stroke-width:1.0;"/><line style="stroke:#A80036;stroke-width:1.5;" x1="848.5" x2="848.5" y1="876.0811" y2="900.4834"/><polygon fill="#A80036" points="844.5,890.4834,848.5,900.4834,852.5,890.4834,848.5,894.4834" style="stroke:#A80036;stroke-width:1.0;"/><line style="stroke:#A80036;stroke-width:1.5;" x1="893.5" x2="1021" y1="864.0811" y2="864.0811"/><polygon fill="#A80036" points="1017,1223.1436,1021,1233.1436,1025,1223.1436,1021,1227.1436" style="stroke:#A80036;stroke-width:1.5;"/><line style="stroke:#A80036;stroke-width:1.5;" x1="1021" x2="1021" y1="864.0811" y2="1623.6943"/><line style="stroke:#A80036;stroke-width:1.5;" x1="1021" x2="860.5" y1="1623.6943" y2="1623.6943"/><polygon fill="#A80036" points="870.5,1619.6943,860.5,1623.6943,870.5,1627.6943,866.5,1623.6943" style="stroke:#A80036;stroke-width:1.0;"/><line style="stroke:#A80036;stroke-width:1.5;" x1="848.5" x2="848.5" y1="832.0811" y2="852.0811"/><polygon fill="#A80036" points="844.5,842.0811,848.5,852.0811,852.5,842.0811,848.5,846.0811" style="stroke:#A80036;stroke-width:1.0;"/><line style="stroke:#A80036;stroke-width:1.5;" x1="848.5" x2="848.5" y1="1635.6943" y2="1655.6943"/><polygon fill="#A80036" points="844.5,1645.6943,848.5,1655.6943,852.5,1645.6943,848.5,1649.6943" style="stroke:#A80036;stroke-width:1.0;"/><line style="stroke:#A80036;stroke-width:1.5;" x1="848.5" x2="848.5" y1="1689.6631" y2="1709.6631"/><polygon fill="#A80036" points="844.5,1699.6631,848.5,1709.6631,852.5,1699.6631,848.5,1703.6631" style="stroke:#A80036;stroke-width:1.0;"/><line style="stroke:#A80036;stroke-width:1.5;" x1="848.5" x2="848.5" y1="778.1123" y2="798.1123"/><polygon fill="#A80036" points="844.5,788.1123,848.5,798.1123,852.5,788.1123,848.5,792.1123" style="stroke:#A80036;stroke-width:1.0;"/><line style="stroke:#A80036;stroke-width:1.5;" x1="900" x2="1039" y1="1775.6318" y2="1775.6318"/><polygon fill="#A80036" points="1035,1277.6279,1039,1267.6279,1043,1277.6279,1039,1273.6279" style="stroke:#A80036;stroke-width:1.5;"/><line style="stroke:#A80036;stroke-width:1.5;" x1="1039" x2="1039" y1="766.1123" y2="1775.6318"/><line style="stroke:#A80036;stroke-width:1.5;" x1="1039" x2="860.5" y1="766.1123" y2="766.1123"/><polygon fill="#A80036" points="870.5,762.1123,860.5,766.1123,870.5,770.1123,866.5,766.1123" style="stroke:#A80036;stroke-width:1.0;"/><line style="stroke:#A80036;stroke-width:1.5;" x1="848.5" x2="848.5" y1="1743.6318" y2="1763.6318"/><polygon fill="#A80036" points="844.5,1753.6318,848.5,1763.6318,852.5,1753.6318,848.5,1757.6318" style="stroke:#A80036;stroke-width:1.0;"/><line style="stroke:#A80036;stroke-width:1.5;" x1="848.5" x2="848.5" y1="734.1123" y2="754.1123"/><polygon fill="#A80036" points="844.5,744.1123,848.5,754.1123,852.5,744.1123,848.5,748.1123" style="stroke:#A80036;stroke-width:1.0;"/><line style="stroke:#A80036;stroke-width:1.5;" x1="848.5" x2="848.5" y1="1787.6318" y2="1829.0308"/><polygon fill="#A80036" points="844.5,1819.0308,848.5,1829.0308,852.5,1819.0308,848.5,1823.0308" style="stroke:#A80036;stroke-width:1.0;"/><text fill="#000000" font-family="sans-serif" font-size="11" lengthAdjust="spacing" textLength="14" x="852.5" y="1808.9365">no</text><line style="stroke:#A80036;stroke-width:1.5;" x1="848.5" x2="848.5" y1="1862.9995" y2="1882.9995"/><polygon fill="#A80036" points="844.5,1872.9995,848.5,1882.9995,852.5,1872.9995,848.5,1876.9995" style="stroke:#A80036;stroke-width:1.0;"/><line style="stroke:#A80036;stroke-width:1.5;" x1="185" x2="185" y1="303.9287" y2="308.9287"/><line style="stroke:#A80036;stroke-width:1.5;" x1="185" x2="522.5" y1="308.9287" y2="308.9287"/><line style="stroke:#A80036;stroke-width:1.5;" x1="522.5" x2="522.5" y1="308.9287" y2="323.9287"/><polygon fill="#A80036" points="518.5,313.9287,522.5,323.9287,526.5,313.9287,522.5,317.9287" style="stroke:#A80036;stroke-width:1.0;"/><line style="stroke:#A80036;stroke-width:1.5;" x1="522.5" x2="522.5" y1="519.8037" y2="527.6025"/><line style="stroke:#A80036;stroke-width:1.5;" x1="522.5" x2="185" y1="527.6025" y2="527.6025"/><line style="stroke:#A80036;stroke-width:1.5;" x1="185" x2="185" y1="527.6025" y2="539.8037"/><polygon fill="#A80036" points="181,529.8037,185,539.8037,189,529.8037,185,533.8037" style="stroke:#A80036;stroke-width:1.0;"/><line style="stroke:#A80036;stroke-width:1.5;" x1="185" x2="185" y1="680.1436" y2="685.1436"/><line style="stroke:#A80036;stroke-width:1.5;" x1="185" x2="848.5" y1="685.1436" y2="685.1436"/><line style="stroke:#A80036;stroke-width:1.5;" x1="848.5" x2="848.5" y1="685.1436" y2="700.1436"/><polygon fill="#A80036" points="844.5,690.1436,848.5,700.1436,852.5,690.1436,848.5,694.1436" style="stroke:#A80036;stroke-width:1.0;"/><text fill="#000000" font-family="sans-serif" font-size="18" lengthAdjust="spacing" textLength="43" x="173.75" y="50.4063">main</text><text fill="#000000" font-family="sans-serif" font-size="18" lengthAdjust="spacing" textLength="56" x="496.5" y="50.4063">getIdk</text><text fill="#000000" font-family="sans-serif" font-size="18" lengthAdjust="spacing" textLength="98" x="816.75" y="50.4063">getCurrent</text><!--MD5=[1f3f26861d5250e78b654508a63567a2]
@startuml IDKExecutor
    title IDK Executor

|main|
    start
        :const process;/
        :process.env.idk = process.env.idk || {};]
        if (!process.env.idk) then (yes)
            :process.env.idk =
            getIdk('./package.json');]
|getIdk|
            :path/
            :const package = readJson(path);]
            :package['idk'].version = package.version;]
            :return package['idk'];/
|main|
        endif
        if (!process.env.idk.current) then (yes)
            :process.env.idk.current =
            getCurrent(process.cwd());|
|getCurrent|
            :path/
            repeat
                :const pjson = path.resolve(path, './package.json');]
                if (exist(pjson)) then (yes)
                    :const package = readJson(pjson);]
                    if (package.idk &&
process.env.idk.version ===
package.idk.version) then (yes)
                        :const current = {};]
                        :current.path = path;]
                        :current.config = package.idk.config;]
                        :const projects = process.env.idk.projects]
                        while (let i = 0; i < projects.length; i++)
                            if (projects[i].path === current.path) then (yes)
                                :current.config = _.union(
                                    current.config,
                                    projects[i].config
                                );]
                            endif
                        endwhile
                        :return current;/
                        (A)
                        detach
                    endif
                endif
                :const prev = path;]
                :path = path.resolve(path, './..'); ]
            repeat while (path !== prev) is (yes)
            ->no;
            :return false;/
            (A)
            detach
|main|
        endif
        (A)
        :const commands = process.env.idk.commands]
        while (let i = 0; i < commands.length; i++)
            :require
                .ensure(commands[i].path)
                .then((command)=>{
                    command.execute(process.argv)
                });|
        endwhile
    end
@enduml

PlantUML version 1.2021.00(Sun Jan 10 12:25:05 EET 2021)
(GPL source distribution)
Java Runtime: OpenJDK Runtime Environment
JVM: OpenJDK 64-Bit Server VM
Default Encoding: UTF-8
Language: en
Country: US
--></g></svg>